<svg width="34" height="37" viewBox="0 0 34 37" fill="none" xmlns="http://www.w3.org/2000/svg">
<path d="M26.1763 19.5089L15.8906 29.7946C15.7567 29.9152 15.6027 29.9754 15.4286 29.9754C15.2545 29.9754 15.1004 29.9152 14.9665 29.7946L9.1808 24.0089C9.06027 23.875 9 23.721 9 23.5469C9 23.3728 9.06027 23.2254 9.1808 23.1049L10.1049 22.1808C10.2254 22.0603 10.3728 22 10.5469 22C10.721 22 10.875 22.0603 11.0089 22.1808L15.4286 26.6004L24.3482 17.6808C24.4821 17.5603 24.6362 17.5 24.8103 17.5C24.9844 17.5 25.1317 17.5603 25.2522 17.6808L26.1763 18.6049C26.2969 18.7254 26.3571 18.8728 26.3571 19.0469C26.3571 19.221 26.2969 19.375 26.1763 19.5089ZM2.57143 33.5714H30.8571V13H2.57143V33.5714ZM10.2857 9.14286V3.35714C10.2857 3.16964 10.2254 3.01562 10.1049 2.89509C9.98438 2.77455 9.83036 2.71428 9.64286 2.71428H8.35714C8.16964 2.71428 8.01563 2.77455 7.89509 2.89509C7.77455 3.01562 7.71429 3.16964 7.71429 3.35714V9.14286C7.71429 9.33036 7.77455 9.48437 7.89509 9.60491C8.01563 9.72545 8.16964 9.78571 8.35714 9.78571H9.64286C9.83036 9.78571 9.98438 9.72545 10.1049 9.60491C10.2254 9.48437 10.2857 9.33036 10.2857 9.14286ZM25.7143 9.14286V3.35714C25.7143 3.16964 25.654 3.01562 25.5335 2.89509C25.4129 2.77455 25.2589 2.71428 25.0714 2.71428H23.7857C23.5982 2.71428 23.4442 2.77455 23.3237 2.89509C23.2031 3.01562 23.1429 3.16964 23.1429 3.35714V9.14286C23.1429 9.33036 23.2031 9.48437 23.3237 9.60491C23.4442 9.72545 23.5982 9.78571 23.7857 9.78571H25.0714C25.2589 9.78571 25.4129 9.72545 25.5335 9.60491C25.654 9.48437 25.7143 9.33036 25.7143 9.14286ZM33.4286 7.85714V33.5714C33.4286 34.2679 33.1741 34.8705 32.6652 35.3795C32.1563 35.8884 31.5536 36.1429 30.8571 36.1429H2.57143C1.875 36.1429 1.27232 35.8884 0.763393 35.3795C0.254464 34.8705 0 34.2679 0 33.5714V7.85714C0 7.16071 0.254464 6.55803 0.763393 6.04911C1.27232 5.54018 1.875 5.28571 2.57143 5.28571H5.14286V3.35714C5.14286 2.47321 5.45759 1.71652 6.08705 1.08705C6.71652 0.457587 7.47321 0.142855 8.35714 0.142855H9.64286C10.5268 0.142855 11.2835 0.457587 11.9129 1.08705C12.5424 1.71652 12.8571 2.47321 12.8571 3.35714V5.28571H20.5714V3.35714C20.5714 2.47321 20.8862 1.71652 21.5156 1.08705C22.1451 0.457587 22.9018 0.142855 23.7857 0.142855H25.0714C25.9554 0.142855 26.7121 0.457587 27.3415 1.08705C27.971 1.71652 28.2857 2.47321 28.2857 3.35714V5.28571H30.8571C31.5536 5.28571 32.1563 5.54018 32.6652 6.04911C33.1741 6.55803 33.4286 7.16071 33.4286 7.85714Z" fill="white"/>
</svg>
