<svg width="31" height="37" viewBox="0 0 31 37" fill="none" xmlns="http://www.w3.org/2000/svg">
<path d="M29.4911 7.77678C29.8661 8.15178 30.1875 8.66071 30.4554 9.30357C30.7232 9.94643 30.8571 10.5357 30.8571 11.0714V34.2143C30.8571 34.75 30.6696 35.2054 30.2946 35.5804C29.9196 35.9554 29.4643 36.1429 28.9286 36.1429H1.92857C1.39286 36.1429 0.9375 35.9554 0.5625 35.5804C0.1875 35.2054 0 34.75 0 34.2143V2.07143C0 1.53571 0.1875 1.08036 0.5625 0.705357C0.9375 0.330355 1.39286 0.142855 1.92857 0.142855H19.9286C20.4643 0.142855 21.0536 0.276783 21.6964 0.544641C22.3393 0.812499 22.8482 1.13393 23.2232 1.50893L29.4911 7.77678ZM20.5714 2.875V10.4286H28.125C27.9911 10.0402 27.8438 9.76562 27.683 9.60491L21.3951 3.31696C21.2344 3.15625 20.9598 3.00893 20.5714 2.875ZM28.2857 33.5714V13H19.9286C19.3929 13 18.9375 12.8125 18.5625 12.4375C18.1875 12.0625 18 11.6071 18 11.0714V2.71428H2.57143V33.5714H28.2857ZM7.71429 16.2143C7.71429 16.0268 7.77455 15.8728 7.89509 15.7522C8.01563 15.6317 8.16964 15.5714 8.35714 15.5714H22.5C22.6875 15.5714 22.8415 15.6317 22.9621 15.7522C23.0826 15.8728 23.1429 16.0268 23.1429 16.2143V17.5C23.1429 17.6875 23.0826 17.8415 22.9621 17.9621C22.8415 18.0826 22.6875 18.1429 22.5 18.1429H8.35714C8.16964 18.1429 8.01563 18.0826 7.89509 17.9621C7.77455 17.8415 7.71429 17.6875 7.71429 17.5V16.2143ZM22.5 20.7143C22.6875 20.7143 22.8415 20.7746 22.9621 20.8951C23.0826 21.0156 23.1429 21.1696 23.1429 21.3571V22.6429C23.1429 22.8304 23.0826 22.9844 22.9621 23.1049C22.8415 23.2254 22.6875 23.2857 22.5 23.2857H8.35714C8.16964 23.2857 8.01563 23.2254 7.89509 23.1049C7.77455 22.9844 7.71429 22.8304 7.71429 22.6429V21.3571C7.71429 21.1696 7.77455 21.0156 7.89509 20.8951C8.01563 20.7746 8.16964 20.7143 8.35714 20.7143H22.5ZM22.5 25.8571C22.6875 25.8571 22.8415 25.9174 22.9621 26.0379C23.0826 26.1585 23.1429 26.3125 23.1429 26.5V27.7857C23.1429 27.9732 23.0826 28.1272 22.9621 28.2478C22.8415 28.3683 22.6875 28.4286 22.5 28.4286H8.35714C8.16964 28.4286 8.01563 28.3683 7.89509 28.2478C7.77455 28.1272 7.71429 27.9732 7.71429 27.7857V26.5C7.71429 26.3125 7.77455 26.1585 7.89509 26.0379C8.01563 25.9174 8.16964 25.8571 8.35714 25.8571H22.5Z" fill="white"/>
</svg>
