<svg width="34" height="37" viewBox="0 0 34 37" fill="none" xmlns="http://www.w3.org/2000/svg">
<path d="M2.57143 33.5714H8.35714V27.7857H2.57143V33.5714ZM9.64286 33.5714H16.0714V27.7857H9.64286V33.5714ZM2.57143 26.5H8.35714V20.0714H2.57143V26.5ZM9.64286 26.5H16.0714V20.0714H9.64286V26.5ZM2.57143 18.7857H8.35714V13H2.57143V18.7857ZM17.3571 33.5714H23.7857V27.7857H17.3571V33.5714ZM9.64286 18.7857H16.0714V13H9.64286V18.7857ZM25.0714 33.5714H30.8571V27.7857H25.0714V33.5714ZM17.3571 26.5H23.7857V20.0714H17.3571V26.5ZM10.2857 9.14286V3.35714C10.2857 3.18303 10.2188 3.03571 10.0848 2.91518C9.96429 2.78125 9.81696 2.71428 9.64286 2.71428H8.35714C8.18304 2.71428 8.02902 2.78125 7.89509 2.91518C7.77455 3.03571 7.71429 3.18303 7.71429 3.35714V9.14286C7.71429 9.31696 7.77455 9.47098 7.89509 9.60491C8.02902 9.72545 8.18304 9.78571 8.35714 9.78571H9.64286C9.81696 9.78571 9.96429 9.72545 10.0848 9.60491C10.2188 9.47098 10.2857 9.31696 10.2857 9.14286ZM25.0714 26.5H30.8571V20.0714H25.0714V26.5ZM17.3571 18.7857H23.7857V13H17.3571V18.7857ZM25.0714 18.7857H30.8571V13H25.0714V18.7857ZM25.7143 9.14286V3.35714C25.7143 3.18303 25.6473 3.03571 25.5134 2.91518C25.3929 2.78125 25.2455 2.71428 25.0714 2.71428H23.7857C23.6116 2.71428 23.4576 2.78125 23.3237 2.91518C23.2031 3.03571 23.1429 3.18303 23.1429 3.35714V9.14286C23.1429 9.31696 23.2031 9.47098 23.3237 9.60491C23.4576 9.72545 23.6116 9.78571 23.7857 9.78571H25.0714C25.2455 9.78571 25.3929 9.72545 25.5134 9.60491C25.6473 9.47098 25.7143 9.31696 25.7143 9.14286ZM33.4286 7.85714V33.5714C33.4286 34.2679 33.1741 34.8705 32.6652 35.3795C32.1563 35.8884 31.5536 36.1429 30.8571 36.1429H2.57143C1.875 36.1429 1.27232 35.8884 0.763393 35.3795C0.254464 34.8705 0 34.2679 0 33.5714V7.85714C0 7.16071 0.254464 6.55803 0.763393 6.04911C1.27232 5.54018 1.875 5.28571 2.57143 5.28571H5.14286V3.35714C5.14286 2.47321 5.45759 1.71652 6.08705 1.08705C6.71652 0.457587 7.47321 0.142855 8.35714 0.142855H9.64286C10.5268 0.142855 11.2835 0.457587 11.9129 1.08705C12.5424 1.71652 12.8571 2.47321 12.8571 3.35714V5.28571H20.5714V3.35714C20.5714 2.47321 20.8862 1.71652 21.5156 1.08705C22.1451 0.457587 22.9018 0.142855 23.7857 0.142855H25.0714C25.9554 0.142855 26.7121 0.457587 27.3415 1.08705C27.971 1.71652 28.2857 2.47321 28.2857 3.35714V5.28571H30.8571C31.5536 5.28571 32.1563 5.54018 32.6652 6.04911C33.1741 6.55803 33.4286 7.16071 33.4286 7.85714Z" fill="white"/>
</svg>
