<svg width="23" height="25" viewBox="0 0 23 25" fill="none" xmlns="http://www.w3.org/2000/svg">
<path d="M2.1054 22.7143H5.96254V18.8571H2.1054V22.7143ZM6.81969 22.7143H11.1054V18.8571H6.81969V22.7143ZM2.1054 18H5.96254V13.7143H2.1054V18ZM6.81969 18H11.1054V13.7143H6.81969V18ZM2.1054 12.8571H5.96254V9H2.1054V12.8571ZM11.9625 22.7143H16.2483V18.8571H11.9625V22.7143ZM6.81969 12.8571H11.1054V9H6.81969V12.8571ZM17.1054 22.7143H20.9625V18.8571H17.1054V22.7143ZM11.9625 18H16.2483V13.7143H11.9625V18ZM7.24826 6.42857V2.57143C7.24826 2.45536 7.20361 2.35714 7.11433 2.27678C7.03397 2.1875 6.93576 2.14286 6.81969 2.14286H5.96254C5.84647 2.14286 5.74379 2.1875 5.65451 2.27678C5.57415 2.35714 5.53397 2.45536 5.53397 2.57143V6.42857C5.53397 6.54464 5.57415 6.64732 5.65451 6.73661C5.74379 6.81696 5.84647 6.85714 5.96254 6.85714H6.81969C6.93576 6.85714 7.03397 6.81696 7.11433 6.73661C7.20361 6.64732 7.24826 6.54464 7.24826 6.42857ZM17.1054 18H20.9625V13.7143H17.1054V18ZM11.9625 12.8571H16.2483V9H11.9625V12.8571ZM17.1054 12.8571H20.9625V9H17.1054V12.8571ZM17.534 6.42857V2.57143C17.534 2.45536 17.4893 2.35714 17.4 2.27678C17.3197 2.1875 17.2215 2.14286 17.1054 2.14286H16.2483C16.1322 2.14286 16.0295 2.1875 15.9402 2.27678C15.8599 2.35714 15.8197 2.45536 15.8197 2.57143V6.42857C15.8197 6.54464 15.8599 6.64732 15.9402 6.73661C16.0295 6.81696 16.1322 6.85714 16.2483 6.85714H17.1054C17.2215 6.85714 17.3197 6.81696 17.4 6.73661C17.4893 6.64732 17.534 6.54464 17.534 6.42857ZM22.6768 5.57143V22.7143C22.6768 23.1786 22.5072 23.5804 22.1679 23.9196C21.8286 24.2589 21.4268 24.4286 20.9625 24.4286H2.1054C1.64111 24.4286 1.23933 24.2589 0.900042 23.9196C0.560756 23.5804 0.391113 23.1786 0.391113 22.7143V5.57143C0.391113 5.10714 0.560756 4.70536 0.900042 4.36607C1.23933 4.02679 1.64111 3.85714 2.1054 3.85714H3.81968V2.57143C3.81968 1.98214 4.02951 1.47768 4.44915 1.05803C4.86879 0.638391 5.37326 0.42857 5.96254 0.42857H6.81969C7.40897 0.42857 7.91343 0.638391 8.33308 1.05803C8.75272 1.47768 8.96254 1.98214 8.96254 2.57143V3.85714H14.1054V2.57143C14.1054 1.98214 14.3152 1.47768 14.7349 1.05803C15.1545 0.638391 15.659 0.42857 16.2483 0.42857H17.1054C17.6947 0.42857 18.1991 0.638391 18.6188 1.05803C19.0384 1.47768 19.2483 1.98214 19.2483 2.57143V3.85714H20.9625C21.4268 3.85714 21.8286 4.02679 22.1679 4.36607C22.5072 4.70536 22.6768 5.10714 22.6768 5.57143Z" fill="#15CE65"/>
</svg>
