<svg width="60" height="60" viewBox="0 0 60 60" fill="none" xmlns="http://www.w3.org/2000/svg">
<g opacity="0.9">
<path d="M60 18.9844H3.16406V7.57031C3.16406 7.01953 3.60938 6.58594 4.14844 6.58594H59.0039C59.5547 6.58594 59.9883 7.03125 59.9883 7.57031V18.9844H60Z" fill="#F5F5F5"/>
<path d="M59.0156 43.8164H4.14844C3.59766 43.8164 3.16406 43.3711 3.16406 42.832V31.4062H60V42.832C60 43.3711 59.5547 43.8164 59.0156 43.8164Z" fill="#FF4B55"/>
<path d="M60 18.9844H3.16406V31.3945H60V18.9844Z" fill="#41479B"/>
<path d="M2.23828 57.1992C1.00781 57.1992 0 56.1914 0 54.9609V5.02734C0 3.79688 0.996094 2.80078 2.22656 2.80078H2.25C3.49219 2.80078 4.48828 3.80859 4.48828 5.03906V54.9609C4.47656 56.1914 3.48047 57.1992 2.23828 57.1992Z" fill="#2E3033"/>
</g>
</svg>
