<svg width="64" height="63" viewBox="0 0 64 63" fill="none" xmlns="http://www.w3.org/2000/svg">
<path d="M53.9588 20.8408C53.9587 20.7596 53.9405 20.6369 53.909 20.5663C53.826 20.2653 53.6415 19.9903 53.3654 19.7984L45.6354 14.4249V8.66465C45.6354 7.90106 45.0161 7.28174 44.2525 7.28174H35.3595L27.7928 2.02117C27.3199 1.692 26.692 1.69063 26.2176 2.01843L18.6022 7.28174H9.74805C8.98425 7.28174 8.36515 7.90106 8.36515 8.66465V14.3571L0.597586 19.7256C0.215473 19.9897 0.00875391 20.4119 0.00221484 20.8435C0.00179297 20.8517 0 20.8594 0 20.8678L0.0412383 50.8457C0.0417656 51.2124 0.187945 51.564 0.447504 51.823C0.706746 52.0815 1.05796 52.2266 1.42414 52.2266C1.42488 52.2266 1.42541 52.2266 1.42604 52.2266L52.619 52.1563C53.3826 52.1552 54.0011 51.5352 54 50.7715L53.9588 20.8408ZM45.6353 17.7935L50.0542 20.8645L45.6353 23.9366V17.7935ZM27.0016 4.8394L30.5147 7.28164H23.4682L27.0016 4.8394ZM11.131 10.0476H42.8695V25.8595L32.2133 33.2679L27.8686 29.8977C27.8619 29.8925 27.8561 29.8892 27.8496 29.8844C27.364 29.5201 26.6772 29.5068 26.1732 29.8977L21.797 33.2922L11.131 25.9207V10.0476ZM8.36515 17.7191V24.0093L3.81459 20.8643L8.36515 17.7191ZM2.7694 23.5056L19.504 35.0708L2.80315 48.0249L2.7694 23.5056ZM5.47119 49.4553L27.021 32.7402L48.4935 49.3962L5.47119 49.4553ZM34.5035 35.0443L51.1966 23.4389L51.2304 48.0194L34.5035 35.0443Z" fill="#15CE65"/>
<path d="M36.3625 15.5791H17.638C16.8744 15.5791 16.2551 16.1984 16.2551 16.962C16.2551 17.7256 16.8744 18.3449 17.638 18.3449H36.3625C37.1263 18.3449 37.7454 17.7256 37.7454 16.962C37.7454 16.1984 37.1263 15.5791 36.3625 15.5791Z" fill="#15CE65"/>
<path d="M36.3625 22.7703H17.638C16.8744 22.7703 16.2551 23.3896 16.2551 24.1532C16.2551 24.9168 16.8744 25.5361 17.638 25.5361H36.3625C37.1263 25.5361 37.7454 24.9168 37.7454 24.1532C37.7454 23.3896 37.1263 22.7703 36.3625 22.7703Z" fill="#15CE65"/>
<circle opacity="0.2" cx="50" cy="49" r="14" fill="#009EE6"/>
</svg>
