<svg width="58" height="51" viewBox="0 0 58 51" fill="none" xmlns="http://www.w3.org/2000/svg">
<g opacity="0.7">
<path d="M25.8755 18.9069V19.6825H28.5617V25.7162H29.3455V19.6825H32.0317V18.9069H25.8755Z" fill="#585858"/>
<path d="M54.5906 37.1303C54.5906 36.0444 54.6233 30.8516 55.4888 29.1371C56.4522 27.2184 54.8193 25.6507 52.9496 27.349C51.2758 28.8676 49.8307 31.1211 49.9939 33.1051C51.7249 34.093 53.3006 35.6116 54.5906 37.1303Z" fill="#15CE65"/>
<path d="M41.0373 39.1552C40.8495 38.8776 40.6944 38.6327 40.5556 38.4204C39.8044 37.6529 38.6042 37.6529 38.0245 38.1428C37.306 38.7552 37.7061 40.6249 38.0245 41.2781C38.7675 42.6742 40.7679 46.1687 43.4214 49.059C45.1196 50.1449 46.6872 50.4388 47.8548 49.7203C48.2712 49.4672 48.5488 48.5528 48.5896 47.8261C45.2829 45.1889 42.4498 41.2781 41.0373 39.1552ZM38.5716 40.8861C38.2531 40.4371 37.6081 39.3512 38.4491 38.747C39.2901 38.1428 40.0575 38.9185 40.4984 39.5471C40.9148 40.1513 38.89 41.3352 38.5716 40.8861Z" fill="#15CE65"/>
<path d="M45.0298 36.2159C44.3358 35.2035 42.7355 34.0196 41.3965 35.0565C40.082 36.0689 40.923 37.5631 41.421 38.5836C42.7437 40.5921 45.6095 44.601 48.8917 47.2627C51.7085 48.1445 53.1373 47.3688 53.6272 45.4175C49.202 42.2659 45.6993 37.212 45.0298 36.2159ZM42.213 38.2162C41.8211 37.6855 41.021 36.4037 42.0089 35.6525C43.005 34.9014 43.9439 35.8158 44.4828 36.5588C45.0135 37.2773 42.6131 38.7551 42.213 38.2162Z" fill="#15CE65"/>
<path d="M37.7143 42.0535C37.6816 41.9964 37.6571 41.9392 37.6245 41.8902C37.4775 41.6535 37.1346 41.2452 36.5222 41.4004C36.2446 41.4738 35.8037 41.7514 35.6323 42.0372C35.3873 42.4454 35.3057 43.0496 35.3057 43.662C35.3139 43.7518 35.3139 43.8416 35.322 43.9314C35.6078 46.8054 37.9184 49.9896 39.6983 50.6346C41.8619 51.4266 42.7927 50.7081 42.9397 49.4915C40.4821 46.8217 38.6042 43.6865 37.7143 42.0535ZM36.163 44.2498C35.8935 43.7926 35.5261 42.6822 36.3753 42.176C37.2326 41.6698 37.5265 42.6577 37.8939 43.2946C38.245 43.8988 36.4324 44.707 36.163 44.2498Z" fill="#15CE65"/>
<path d="M57.089 41.7679C57.0645 41.7025 57.04 41.6454 57.0237 41.5801C56.3624 40.5105 55.0887 38.6163 53.4557 36.8364C52.476 35.775 51.3738 34.7544 50.1899 33.9869C49.0632 33.2521 47.8711 32.7459 46.6546 32.6397C46.0749 32.5908 45.683 32.7132 45.4462 33.0153C44.9318 33.6685 45.2503 35.081 45.4135 35.5709L45.4625 35.726C45.6177 35.9628 49.3979 41.6699 54.0926 44.9766C56.9257 45.7522 57.5871 43.3518 57.089 41.7679ZM46.826 36.1424C46.3525 35.7015 45.3564 34.6319 46.1647 33.7338C46.973 32.8357 48.0426 33.5379 48.6957 34.1502C49.3163 34.7381 47.2996 36.5833 46.826 36.1424Z" fill="#15CE65"/>
<path d="M3.78193 36.8527C5.09644 35.3668 6.67222 33.9053 8.39496 32.9909C8.47661 31.0477 7.05596 28.8677 5.43119 27.3981C3.56148 25.6998 1.92855 27.2674 2.89198 29.1861C3.67579 30.7619 3.77376 35.3015 3.78193 36.8527Z" fill="#15CE65"/>
<path d="M20.0623 38.1918C19.4826 37.7019 18.2824 37.7019 17.5312 38.4694C17.4006 38.6817 17.2373 38.9266 17.0577 39.2042C15.6452 41.327 12.812 45.2379 9.51352 47.8751C9.55434 48.6017 9.83194 49.5162 10.2483 49.7693C11.4241 50.4796 12.9835 50.1938 14.6818 49.1079C17.3353 46.2176 19.3275 42.715 20.0786 41.327C20.3807 40.6657 20.7808 38.8041 20.0623 38.1918ZM19.5234 40.9351C19.205 41.3841 17.1801 40.2003 17.5965 39.5961C18.0293 38.9674 18.8049 38.1918 19.6459 38.796C20.4787 39.4001 19.8418 40.4779 19.5234 40.9351Z" fill="#15CE65"/>
<path d="M16.6658 38.6163C17.1638 37.5957 18.0048 36.1015 16.6903 35.0891C15.3512 34.0604 13.7591 35.2443 13.057 36.2485C12.3875 37.2446 8.88483 42.3067 4.45142 45.4419C4.93313 47.4015 6.37011 48.1771 9.18692 47.2871C12.4773 44.6336 15.3431 40.6248 16.6658 38.6163ZM13.5958 36.6078C14.1347 35.8648 15.0818 34.9503 16.0697 35.7015C17.0658 36.4526 16.2657 37.7263 15.8656 38.2652C15.4819 38.7959 13.0815 37.3263 13.5958 36.6078Z" fill="#15CE65"/>
<path d="M22.4627 42.0781C22.2912 41.7923 21.8503 41.5147 21.5727 41.4413C20.9604 41.2861 20.6175 41.6944 20.4705 41.9311C20.446 41.9801 20.4133 42.0373 20.3807 42.0863C19.4826 43.7192 17.6129 46.8544 15.1635 49.5243C15.3104 50.7408 16.2412 51.4593 18.4048 50.6673C20.1847 50.0142 22.4872 46.8381 22.7811 43.9642C22.7893 43.8743 22.7974 43.7845 22.7974 43.6947C22.7893 43.0905 22.7076 42.4945 22.4627 42.0781ZM21.9238 44.2907C21.6544 44.748 19.85 43.9396 20.1929 43.3273C20.5521 42.6904 20.8542 41.7107 21.7115 42.2087C22.5607 42.7231 22.1932 43.8335 21.9238 44.2907Z" fill="#15CE65"/>
<path d="M12.6243 35.7587L12.6732 35.6036C12.8365 35.1137 13.155 33.7094 12.6406 33.048C12.4038 32.7459 12.0119 32.6235 11.4322 32.6725C10.3463 32.7704 9.27674 33.1868 8.26432 33.791C6.86 34.632 5.54549 35.8485 4.42693 37.1059C2.90013 38.8123 1.70809 40.5922 1.07125 41.6128C1.04676 41.6781 1.02226 41.7352 1.00593 41.8006C0.507887 43.3845 1.16922 45.7849 4.00236 44.9929C8.69705 41.7026 12.4691 35.9955 12.6243 35.7587ZM9.39921 34.1993C10.0524 33.5869 11.122 32.8929 11.9303 33.7829C12.7386 34.681 11.7425 35.7505 11.2689 36.1914C10.7954 36.6323 8.77053 34.7871 9.39921 34.1993Z" fill="#15CE65"/>
<path d="M33.6728 28.8513H24.2589V44.8704H33.6728V28.8513ZM25.6142 37.9304C25.2631 37.9304 24.9774 37.6447 24.9774 37.2936C24.9774 36.9425 25.2631 36.6567 25.6142 36.6567C25.9653 36.6567 26.2511 36.9425 26.2511 37.2936C26.2511 37.6447 25.9653 37.9304 25.6142 37.9304Z" fill="#009EE6"/>
<path d="M38.4736 21.4624L29.0597 7.6886L19.8092 21.7318V23.7158V37.3672C20.0541 37.4325 20.2745 37.5386 20.4787 37.7101C21.3523 38.4531 21.1727 40.037 20.8461 40.9433C21.1563 40.8616 21.3604 40.7392 21.736 40.8371C22.1769 40.9514 22.6178 41.3923 22.8709 41.8251C23.3363 42.617 23.369 43.8826 23.3036 44.8787H23.4751V28.0839H34.4566V44.8787H34.7913C34.7178 43.8744 34.7505 42.5844 35.224 41.7761C35.4772 41.3433 35.918 40.9025 36.3589 40.7882C36.7345 40.6902 36.9305 40.8208 37.2489 40.8943C36.9223 39.988 36.7427 38.4041 37.6163 37.6611C37.8694 37.4488 38.1633 37.3345 38.4736 37.2855V23.7158V21.4624ZM28.5617 25.7162H25.8755V19.6907H28.5617V25.7162ZM32.0317 25.7162H29.3455V19.6907H32.0317V25.7162ZM32.0317 18.9068H25.8755V16.8412H32.0317V18.9068Z" fill="#009EE6"/>
<path d="M28.5617 25.7162H25.8755V19.6907H28.5617V25.7162Z" fill="#009EE6"/>
<path d="M32.0317 25.7162H29.3455V19.6907H32.0317V25.7162Z" fill="#009EE6"/>
<path d="M32.0317 18.9068H25.8755V16.8412H32.0317V18.9068Z" fill="#009EE6"/>
<path d="M39.6085 21.8624V23.7076V37.3018C39.8779 37.3508 40.1392 37.4243 40.3596 37.4978C40.0249 36.5915 39.9432 35.3586 41.0046 34.5422C42.1967 33.6195 43.7724 34.1339 44.5889 34.8769C44.4746 34.1829 44.4501 33.2276 44.94 32.6071C45.3156 32.1254 45.9116 31.9213 46.7036 31.9948C47.4384 32.0601 48.1569 32.2642 48.859 32.5581V23.7158V21.8706H39.6085V21.8624Z" fill="#009EE6"/>
<path d="M18.6743 21.8624H9.31755V23.7076V32.5581C9.98705 32.2887 10.681 32.0927 11.3832 32.0356C12.1752 31.9703 12.7712 32.1744 13.1468 32.6479C13.6367 33.2766 13.604 34.2237 13.4979 34.9177C14.3225 34.1747 15.8901 33.6604 17.0821 34.583C18.1436 35.3994 18.0619 36.6323 17.7272 37.5386C18.0048 37.4488 18.3313 37.359 18.6743 37.31V23.6995V21.8624Z" fill="#009EE6"/>
<path d="M45.6667 1.49974H21.2461V0.920044H15.9146V1.49974H12.5181L5.472 20.6867H9.31756H19.0907L24.7814 12.0485L29.0434 5.58208L33.4605 12.0485L39.3635 20.6867H48.8672H52.7128L45.6667 1.49974Z" fill="#15CE65"/>
</g>
</svg>
