<svg width="44" height="58" viewBox="0 0 44 58" fill="none" xmlns="http://www.w3.org/2000/svg">
<g opacity="0.7">
<path d="M27.6621 20.7721H25.7428C25.5762 20.7721 25.4493 20.6372 25.4493 20.4786C25.4493 20.3121 25.5841 20.1852 25.7428 20.1852H27.6621C27.8286 20.1852 27.9555 20.32 27.9555 20.4786C27.9555 20.6452 27.8286 20.7721 27.6621 20.7721Z" fill="#15CE65"/>
<path d="M35.379 12.2859C35.0855 11.7862 34.4352 11.7624 34.4352 11.7624C34.7286 9.05796 34.8 6.78968 34.6176 5.21934C34.2607 2.14209 31.8259 1.08727 27.2179 0.793818C27.0434 0.785887 26.869 0.777951 26.6945 0.77002C26.52 0.777951 26.3455 0.785887 26.171 0.793818C21.5631 1.08727 19.1283 2.14209 18.7714 5.21934C18.589 6.78968 18.6604 9.05796 18.9538 11.7624C18.9538 11.7624 18.4383 11.8576 18.0972 12.2859C17.78 12.6824 17.7086 13.2455 17.891 13.9593C18.1845 15.0855 18.9776 15.498 19.4059 15.6407C19.8024 17.4014 20.3893 19.2493 21.3172 20.6055C23.4903 23.77 26.5597 23.8097 26.6866 23.8097C26.8135 23.8097 29.9065 23.77 32.0797 20.6055C32.9997 19.2573 33.6024 17.4173 33.999 15.6645C34.3955 15.5455 35.2759 15.1569 35.5852 13.9593C35.7676 13.2455 35.6407 12.73 35.379 12.2859ZM34.8317 13.769C34.57 14.7842 33.8879 14.9824 33.3565 14.9904C32.9679 16.7828 32.3334 18.8448 31.4293 20.1693C29.5021 22.9848 26.7897 23.0324 26.6786 23.0324C26.5676 23.0324 23.879 22.9848 21.9517 20.1693C21.0476 18.8448 20.4131 16.8145 20.0245 15.0142C19.7231 14.9031 18.8983 14.7842 18.6365 13.769C18.5572 13.4517 18.4858 13.0155 18.6841 12.7855C19.0252 12.3811 19.4772 12.5476 19.5962 12.5793C19.5962 12.5793 19.5962 12.5793 19.5962 12.5714L19.62 12.5793C19.62 12.5793 19.9848 7.63037 21.111 6.87692C22.2452 6.12347 23.0383 6.95623 26.4328 6.95623C26.52 6.95623 26.5993 6.95623 26.6786 6.95623C26.7579 6.95623 26.8372 6.95623 26.9245 6.95623C30.3269 6.95623 31.1121 6.11554 32.2462 6.87692C33.3803 7.63037 33.7372 12.5793 33.7372 12.5793C33.7372 12.5793 34.3162 12.2621 34.7603 12.7776C34.9745 13.0076 34.911 13.4438 34.8317 13.769Z" fill="#15CE65"/>
<path d="M26.6628 30.099C27.1545 30.099 27.5352 29.8135 27.7414 29.6231L28.0824 28.5445L26.5438 26.8552L25.1955 28.4811L25.5286 29.5201C25.6317 29.6549 26.0362 30.099 26.6628 30.099Z" fill="#15CE65"/>
<path d="M27.8286 30.5272C27.5193 30.7176 27.1307 30.8762 26.6548 30.8762C26.1552 30.8762 25.7586 30.7017 25.4652 30.5034L25.3859 31.0507L22.6338 50.6007L26.6152 55.51L30.66 50.6007L27.9079 31.0507L27.8286 30.5272Z" fill="#15CE65"/>
<path d="M43.2942 31.7169C43.2228 29.2107 41.4462 28.3938 39.6062 27.5849C39.3048 27.45 38.8845 27.2835 38.3848 27.1011C37.5521 26.7918 36.4972 26.419 35.4662 26.0621C34.4193 25.7052 33.3803 25.3562 32.5952 25.0945C31.9766 23.8573 30.7235 23.1355 30.6679 23.1038L30.4538 22.9849L26.5755 25.61L22.9352 23.0007L22.721 23.1197C22.6735 23.1514 21.5314 23.8018 20.9048 24.9994C20.0959 25.269 18.9459 25.6497 17.7721 26.0542C16.7331 26.4111 15.6862 26.7759 14.8535 27.0931C14.3538 27.2835 13.9255 27.45 13.6321 27.5769C12.4979 28.0766 11.3876 28.5842 10.6897 29.4804H16.289H17.0503V30.2418V52.1631V52.9245H16.289H9.31758C10.531 53.6304 14.1159 55.2959 14.79 55.5497C14.9645 55.6131 15.139 55.6766 15.3134 55.74C18.8428 56.9931 22.6338 57.6831 26.5914 57.699C30.5569 57.6911 34.3955 56.9931 37.9328 55.74C38.1073 55.6766 40.4866 54.709 40.4866 54.709C41.7 54.1618 42.8738 53.559 44 52.8769C43.9524 51.4176 43.3655 34.12 43.2942 31.7169ZM34.229 32.7876H35.03V34.0407H34.229V32.7876ZM28.0824 28.5445L27.7414 29.6231C27.5352 29.8214 27.1545 30.099 26.6628 30.099C26.0362 30.099 25.6317 29.6549 25.5286 29.52L25.1955 28.4811L26.5438 26.8552L28.0824 28.5445ZM25.3938 31.0507L25.4731 30.5035C25.7666 30.7018 26.1631 30.8762 26.6628 30.8762C27.1386 30.8762 27.5272 30.7176 27.8366 30.5273L27.9079 31.0507L30.66 50.6007L26.6152 55.51L22.6338 50.6007L25.3938 31.0507ZM30.4776 23.9128C30.7155 24.0714 31.12 24.3887 31.4769 24.8169C31.0645 26.9266 29.9066 28.8062 29.6845 29.1473L27.0355 26.2445L30.4776 23.9128ZM22.8955 23.9366L26.0679 26.2049L23.5855 29.1949C23.53 29.1076 22.2848 27.2042 21.801 25.0073C22.1659 24.4838 22.6338 24.119 22.8955 23.9366ZM37.3459 41.4959H31.9052V34.7387H37.3459V41.4959Z" fill="#009EE6"/>
<path d="M36.7034 35.6825H32.5476V36.2297H36.7034V35.6825Z" fill="#15CE65"/>
<path d="M0.76001 30.2498V52.1711H16.289V30.2498H0.76001ZM15.5276 51.4097H1.51344V31.0111H15.5276V51.4097Z" fill="#15CE65"/>
<path d="M14.2666 37.9111H2.78241V38.6487H14.2666V37.9111Z" fill="#15CE65"/>
<path d="M14.2666 40.2269H2.78241V40.9645H14.2666V40.2269Z" fill="#15CE65"/>
<path d="M14.2666 42.5903H2.78241V43.3279H14.2666V42.5903Z" fill="#15CE65"/>
<path d="M14.2666 44.8746H2.78241V45.6122H14.2666V44.8746Z" fill="#15CE65"/>
<path d="M12.4266 48.7212C12.7993 48.7212 13.1007 49.0225 13.1007 49.3953C13.1007 49.7681 12.7993 50.0694 12.4266 50.0694C12.0538 50.0694 11.7524 49.7681 11.7524 49.3953C11.7524 49.0225 12.0538 48.7212 12.4266 48.7212ZM12.4266 48.1184C11.7207 48.1184 11.1496 48.6894 11.1496 49.3953C11.1496 50.1012 11.7207 50.6722 12.4266 50.6722C13.1324 50.6722 13.7034 50.1012 13.7034 49.3953C13.7034 48.6894 13.1324 48.1184 12.4266 48.1184Z" fill="#15CE65"/>
<path d="M14.2824 32.7322H2.76656V34.2549H14.2824V32.7322Z" fill="#009EE6"/>
</g>
</svg>
