<svg width="69" height="62" viewBox="0 0 69 62" fill="none" xmlns="http://www.w3.org/2000/svg">
<g clip-path="url(#clip0)">
<path d="M51.1624 32.7695C50.6641 32.7695 50.2602 33.1735 50.2602 33.6718C50.2602 34.3035 49.7462 34.8175 49.1145 34.8175C48.4829 34.8175 47.9688 34.3035 47.9688 33.6718C47.9688 33.1734 47.5648 32.7695 47.0665 32.7695C46.5682 32.7695 46.1643 33.1735 46.1643 33.6718C46.1643 35.2986 47.4878 36.622 49.1145 36.622C50.7411 36.622 52.0647 35.2985 52.0647 33.6718C52.0647 33.1733 51.6607 32.7695 51.1624 32.7695Z" fill="#15CE65" stroke="#15CE65"/>
<path d="M59.6319 32.9169L57.0923 32.1034C56.7671 31.9991 56.5107 31.7395 56.4067 31.4088C55.8714 29.7071 55.0637 28.1095 54.006 26.6602C53.5239 25.9997 52.9878 25.3689 52.4022 24.7684C52.7769 23.1248 52.9806 21.2646 52.9542 19.6576C52.9164 17.3586 52.457 16.0103 51.5497 15.5351C51.0611 15.2789 49.5741 14.5005 41.5253 18.1849C41.3347 18.2721 41.1567 18.3795 40.9919 18.5025C40.4493 18.3567 39.8947 18.2218 39.3367 18.1007C39.2695 18.0861 39.2002 18.0731 39.1325 18.0588C39.7847 16.634 40.1656 15.0866 40.2372 13.4891C40.2594 12.9912 39.874 12.5695 39.3761 12.5474C38.8795 12.5227 38.4565 12.9104 38.4343 13.4083C38.3167 16.035 37.2271 18.5064 35.3664 20.3672C34.2546 21.479 32.9529 22.2866 31.5655 22.7952C29.1595 22.4575 26.7088 22.4575 24.3028 22.7952C22.9153 22.2866 21.6137 21.479 20.5019 20.3672C18.5167 18.382 17.4233 15.7425 17.4233 12.935C17.4233 10.1273 18.5167 7.48794 20.5019 5.50273C22.4871 3.5174 25.1267 2.42404 27.9341 2.42404C30.7416 2.42404 33.3812 3.5174 35.3664 5.50273C36.1642 6.3005 36.8234 7.21088 37.3258 8.20833C37.55 8.65347 38.0926 8.83269 38.5376 8.60842C38.9827 8.3844 39.1618 7.84178 38.9377 7.39676C38.3488 6.22711 37.5766 5.16064 36.6426 4.22652C34.3165 1.90043 31.2238 0.619385 27.9343 0.619385C24.6448 0.619385 21.552 1.90043 19.2259 4.22652C16.8998 6.55273 15.6188 9.64535 15.6188 12.9349C15.6188 16.2244 16.8998 19.3171 19.2259 21.6432C19.8969 22.3142 20.6269 22.8912 21.399 23.3746C21.3992 23.3746 21.3994 23.3745 21.3997 23.3745C20.8387 23.5203 20.2819 23.684 19.7313 23.868C19.2586 24.0261 19.0036 24.5372 19.1616 25.01C19.3195 25.4826 19.8309 25.7376 20.3034 25.5797C25.2242 23.9346 30.6443 23.9346 35.5651 25.5797C35.6601 25.6114 35.7564 25.6264 35.8513 25.6264C36.2287 25.6264 36.5806 25.3876 36.7069 25.01C36.8649 24.5373 36.6099 24.0261 36.1373 23.868C35.5867 23.684 35.0299 23.5201 34.4688 23.3745C34.4691 23.3745 34.4693 23.3746 34.4696 23.3746C35.2418 22.8912 35.9716 22.3142 36.6426 21.6432C37.2362 21.0496 37.7602 20.4014 38.2151 19.7125C38.4639 19.7608 38.7108 19.8114 38.954 19.8642C39.2781 19.9346 39.6007 20.0101 39.9204 20.0894C39.9103 20.1287 39.9 20.1678 39.8917 20.2076C39.4516 22.2959 39.4802 24.1428 39.9766 25.6968C40.4227 27.0936 41.2278 28.2252 42.3694 29.0604C43.7148 30.0447 45.3392 30.4698 46.8106 30.4698C47.918 30.4698 48.9389 30.2288 49.6888 29.8042C50.5369 29.3238 51.2475 28.3116 51.81 26.7918C52.07 27.0953 52.3164 27.4062 52.5486 27.7244C53.4904 29.0145 54.2093 30.4364 54.6855 31.9503C54.9651 32.8395 55.6592 33.5392 56.5421 33.8222L59.0816 34.6357C59.748 34.8492 60.1957 35.4625 60.1957 36.1622V40.3732C60.1957 41.0729 59.748 41.6863 59.0816 41.8997L54.99 43.2103C54.3354 43.4202 53.7814 43.8701 53.4301 44.4772C51.8226 47.2553 49.2952 49.5543 45.9178 51.3103C45.5276 51.5134 45.2573 51.8765 45.176 52.3069L43.8655 59.2459C43.8293 59.4371 43.6618 59.5758 43.4672 59.5758H39.2063C39.0117 59.5758 38.8442 59.437 38.808 59.2459L38.0822 55.411C37.9393 54.6565 37.2316 54.1553 36.4699 54.2707C34.6345 54.5482 32.7433 54.6888 30.849 54.6888C29.4397 54.6888 28.0485 54.6102 26.7136 54.4551C25.9756 54.3702 25.288 54.8734 25.1501 55.6021L24.4603 59.2459C24.4241 59.4371 24.2567 59.5758 24.0621 59.5758H19.8011C19.6065 59.5758 19.4391 59.437 19.4024 59.243L18.1406 52.6892C18.0593 52.2669 17.7941 51.9079 17.4126 51.7041C11.6553 48.6306 8.61219 43.4958 8.61219 36.855C8.61219 33.4997 9.34626 30.5328 10.7939 28.0363C12.1449 25.7066 14.118 23.7804 16.6584 22.3109C17.0897 22.0613 17.2371 21.5094 16.9876 21.0779C16.7382 20.6466 16.1862 20.4995 15.7548 20.7487C10.8288 23.5982 7.85777 27.9944 7.03978 33.5781V33.5779C6.95296 33.5701 6.86602 33.5626 6.77943 33.5536C6.79518 32.9512 6.68619 32.3433 6.44885 31.7533C5.92536 30.452 4.85005 29.5128 3.70922 29.3606C2.81022 29.2402 1.9547 29.6219 1.36097 30.4064C0.500117 31.5439 0.640465 32.4441 0.909656 32.999C1.36412 33.9354 2.53231 34.5978 4.4709 35.0142C4.41762 35.094 4.35901 35.1742 4.29483 35.2547C3.14941 36.6913 1.79994 37.0089 0.923703 37.0388C0.41075 37.0561 0 37.468 0 37.9813V37.9856C0 38.4919 0.399488 38.9049 0.905297 38.928C0.970082 38.931 1.03777 38.9326 1.10825 38.9326C2.21698 38.9326 3.99646 38.5237 5.70606 36.3799C5.97598 36.0416 6.19588 35.6846 6.36493 35.3158C6.53519 35.335 6.69878 35.3515 6.85548 35.366C6.85548 35.3656 6.85548 35.3654 6.8556 35.365C6.82484 35.854 6.80777 36.3501 6.80777 36.855C6.80777 40.6123 7.7035 43.9623 9.46989 46.8125C11.0986 49.4402 13.4305 51.5918 16.4031 53.2099L17.6298 59.5814C17.8271 60.6237 18.7402 61.3803 19.8011 61.3803H24.0621C25.123 61.3803 26.0361 60.6237 26.2334 59.5814L26.857 56.2866C28.1522 56.4238 29.4932 56.4933 30.8489 56.4933C32.7089 56.4933 34.5667 56.3638 36.3773 56.108L37.0347 59.5816C37.2321 60.624 38.1453 61.3804 39.206 61.3804H43.467C44.5279 61.3804 45.441 60.6239 45.6384 59.5811L46.9144 52.8252C50.5191 50.919 53.2362 48.4151 54.9918 45.3809C55.1184 45.1622 55.3132 45.0018 55.5404 44.929L59.6319 43.6184C61.0483 43.1644 62 41.8604 62 40.373V36.162C62 34.6747 61.0483 33.3706 59.6319 32.9169ZM51.0141 22.1932C50.6668 25.1631 49.7353 27.7037 48.7992 28.2338C47.7353 28.8365 45.2789 28.9529 43.4346 27.6038C41.5882 26.2531 40.9736 23.8242 41.6572 20.5796C41.6572 20.5795 41.6572 20.5795 41.6572 20.5795C41.7259 20.2536 41.9574 19.9717 42.2765 19.8257C46.7938 17.7579 49.3981 17.0816 50.3657 17.0816C50.5117 17.0816 50.6205 17.097 50.6929 17.1253C50.9835 17.4351 51.3647 19.1959 51.0141 22.1932ZM2.5334 32.211C2.44004 32.0185 2.66043 31.68 2.80017 31.4952C3.02165 31.2027 3.2257 31.1429 3.37985 31.1429C3.41242 31.1429 3.44282 31.1455 3.47067 31.1493C3.88554 31.2046 4.46679 31.6611 4.77473 32.4266C4.84726 32.6068 4.94147 32.9053 4.96351 33.2775C3.71443 33.0187 2.74398 32.6456 2.5334 32.211Z" fill="#15CE65" stroke="#15CE65"/>
<path d="M28.8104 11.9008V8.67197C29.9239 8.75153 30.3375 9.26048 30.7192 9.26048C31.1964 9.26048 31.4191 8.65611 31.4191 8.35386C31.4191 7.57437 29.892 7.2404 28.8104 7.20855V6.77891C28.8104 6.58807 28.5717 6.41309 28.3332 6.41309C28.0627 6.41309 27.8718 6.58807 27.8718 6.77891V7.24016C26.3607 7.39927 24.8496 8.19462 24.8496 10.1988C24.8496 12.2349 26.4402 12.8076 27.8718 13.3165V17.0546C26.2493 16.9273 25.8199 15.8138 25.2949 15.8138C24.8973 15.8138 24.5633 16.3388 24.5633 16.7206C24.5633 17.4999 25.8994 18.5657 27.8718 18.5975V19.0906C27.8718 19.2815 28.0628 19.4565 28.3332 19.4565C28.5719 19.4565 28.8104 19.2815 28.8104 19.0906V18.5498C30.5284 18.3111 31.7054 17.2295 31.7054 15.273C31.7054 13.1098 30.1943 12.4098 28.8104 11.9008ZM27.9672 11.5987C27.1242 11.2806 26.4402 10.9466 26.4402 10.04C26.4402 9.21277 27.0765 8.8151 27.9672 8.70382V11.5987ZM28.7149 17.0227V13.6665C29.4942 14.0005 30.1146 14.4458 30.1146 15.4479C30.1146 16.3548 29.5738 16.8637 28.7149 17.0227Z" fill="#15CE65" stroke="#15CE65"/>
</g>
<circle opacity="0.2" cx="55" cy="32" r="14" fill="#009EE6"/>
<defs>
<clipPath id="clip0">
<rect width="62" height="62" fill="white"/>
</clipPath>
</defs>
</svg>
