<svg width="61" height="63" viewBox="0 0 61 63" fill="none" xmlns="http://www.w3.org/2000/svg">
<g opacity="0.7">
<path d="M55.42 3.57999C54.96 3.27999 52.74 2.05998 49.94 3.92998C47.18 5.76998 42.23 9.40998 37.84 12.76C36.86 12.33 35.16 11.57 33.09 10.64L33.56 10.26C34.16 9.76998 34.25 8.88998 33.77 8.28998C33.28 7.68998 32.4 7.59999 31.8 8.07999L30.23 9.34999C27.66 8.19999 24.84 6.92999 22.21 5.74999L22.86 5.21999C23.46 4.72999 23.55 3.84999 23.07 3.24999C22.58 2.64999 21.7 2.55998 21.1 3.03998L19.35 4.44998C16.62 3.20998 14.38 2.17998 13.35 1.66998C9.40999 -0.270016 8.32999 1.97998 6.48999 3.25998C6.69999 3.40998 7.07998 3.69999 7.58998 4.09999C11.7 7.28999 24.51 17.52 28.19 20.46C23.67 24.21 18.58 28.58 15.63 31.32C14.65 32.24 13.86 33.08 13.24 33.85C10.71 32.69 6.26998 30.78 2.64998 29.79C2.01998 29.62 0.359985 31.03 0.359985 31.03L10.71 39.27L19.91 31.81C20.12 31.64 20.42 31.68 20.58 31.88C20.75 32.08 20.71 32.39 20.51 32.55L11.26 40.04L17.03 51.64C17.03 51.64 18.75 50.31 18.72 49.66C18.52 45.92 17.58 41.2 16.97 38.48C17.86 38.03 18.85 37.44 19.96 36.66C23.23 34.37 28.5 30.35 33.09 26.75C33.9 28.37 35.2 30.98 36.65 33.88C36.96 33.48 37.38 33.2 37.89 33.03L34.09 25.25L35.26 24.3L39 32.81C41 32.63 43.23 32.43 45.36 32.51C44.97 30.68 44.57 28.82 44.19 27.06L45.97 25.62C46.57 25.13 46.66 24.25 46.18 23.65C45.7 23.05 44.81 22.96 44.21 23.44L43.53 23.99C43.1 21.98 42.74 20.25 42.49 19.06C46.75 15.42 51.5 11.22 53.92 8.84999C56.34 6.51999 55.61 4.08999 55.42 3.57999ZM29.62 19.73L17.08 9.89998L17.74 9.36998L30.79 18.79L29.62 19.73ZM52.53 8.60999L52.22 8.21999C52.22 8.21999 54.27 6.31999 53.38 5.21999C52.5 4.12999 50.21 5.72998 50.21 5.72998L49.9 5.33998C49.9 5.33998 52.53 2.93998 54.17 4.58998C55.43 6.53998 52.53 8.60999 52.53 8.60999Z" fill="#009EE6"/>
<path d="M60.03 39.4701L54.18 32.05H45.59H37L31.15 39.4701C31.15 39.4701 30.56 53.9801 45.59 62.7501C60.62 53.9801 60.03 39.4701 60.03 39.4701ZM45.85 60.7301L45.59 60.9001L45.33 60.7301C32.07 52.1901 32.91 39.96 32.92 39.83L32.93 39.6801L37.69 33.7601H53.47L58.23 39.6801L58.24 39.83C58.27 39.96 59.11 52.1901 45.85 60.7301Z" fill="#15CE65"/>
<path d="M53.02 34.73H38.15L33.86 40.06C33.81 41.4 33.84 52.05 45.58 59.76C57.35 52.03 57.35 41.4 57.3 40.06L53.02 34.73ZM39.58 41.86C38.82 42.69 38.38 43.99 38.38 43.99C38.38 43.99 37.93 42.69 37.17 41.86C36.42 41.03 35.08 40.55 35.08 40.55C35.08 40.55 36.44 40.16 37.28 39.2C37.92 38.47 38.37 36.98 38.37 36.99C38.37 36.99 38.82 38.48 39.46 39.2C40.3 40.15 41.66 40.55 41.66 40.55C41.66 40.55 40.33 41.03 39.58 41.86Z" fill="#15CE65"/>
</g>
</svg>
