<svg width="53" height="68" viewBox="0 0 53 68" fill="none" xmlns="http://www.w3.org/2000/svg">
<g opacity="0.7">
<path d="M34.4702 44.2327C36.8255 44.1671 39.3861 43.7649 41.7989 43.8634V37.1173H32.9272V45.1027C33.3458 44.6103 33.9203 44.2492 34.4702 44.2327Z" fill="#15CE65"/>
<path d="M12.8859 59.1119V52.6776H10.8916V59.1119H10.3417V52.6776H8.49515V59.1119H7.9535V52.6776H6.1726V59.1119H5.63093V52.6776H3.92389V59.1201L12.8859 59.1119Z" fill="#15CE65"/>
<path d="M32.2461 59.1201L31.8439 58.3733C30.9247 56.6416 30.1369 54.7951 29.7429 52.9567C29.4147 51.4056 29.2916 49.3539 30.6211 48.3034C30.974 47.7207 31.3925 47.1955 31.8439 46.6784V37.1091L22.8327 23.5923L13.9856 37.1173H13.9774V59.1201H17.4654V43.0099H28.0195V59.1201H32.2461ZM22.6521 40.8187H19.9685V34.9015H22.6521V40.8187ZM25.8693 40.8187H23.4318V34.9015H25.8693V40.8187ZM25.8693 34.1218H19.9685V32.1932H25.8693V34.1218Z" fill="#15CE65"/>
<path d="M11.0065 14.2855V17.6093V20.1699H14.5765V17.6093V14.2855H11.0065Z" fill="#009EE6"/>
<path d="M38.7131 17.6094H32.8534L34.0352 20.3669H38.4013L34.544 22.4186L34.4127 26.2677L31.5895 23.8466L27.1085 26.2677L30.3092 21.7785L26.5669 18.5285L31.2366 20.3915L32.1148 17.6094H15.3644V20.9578H10.2268V17.6094H7.00972L0.280029 35.9355H13.3291L22.8163 21.401L32.4841 35.9355H45.4428L38.7131 17.6094Z" fill="#009EE6"/>
<path d="M24.6054 2.24598L28.2739 7.96622L23.5467 9.53374L30.6457 18.6763L26.7228 10.5924L31.0561 9.03311L28.2739 0.900024L24.6054 2.24598Z" fill="#009EE6"/>
<path d="M12.8859 37.1173H3.92389V38.8572V52.1278H12.8859V37.1173Z" fill="#15CE65"/>
<path d="M27.2316 43.7977H18.245V59.1201H27.2316V43.7977ZM19.9931 52.4724C19.6566 52.4724 19.3858 52.2016 19.3858 51.8651C19.3858 51.5287 19.6566 51.2578 19.9931 51.2578C20.3296 51.2578 20.6004 51.5287 20.6004 51.8651C20.6004 52.2016 20.3296 52.4724 19.9931 52.4724Z" fill="#15CE65"/>
<path d="M52.0741 49.3127L47.3715 43.3545H40.4777H33.5838L28.8812 49.3127C28.8812 49.3127 28.4134 60.9584 40.4777 67.9999C52.5419 60.9584 52.0741 49.3127 52.0741 49.3127ZM40.7977 66.5555L40.4777 66.7607L40.1576 66.5555C29.4065 59.6289 30.0712 49.9939 30.1041 49.5836L30.1205 49.403L34.0434 44.5281H40.4777H46.9119L50.8348 49.403L50.8512 49.5836C50.8923 49.9939 51.557 59.6289 40.7977 66.5555Z" fill="#009EE6"/>
<path d="M49.6859 49.8545L46.3456 45.71H40.4777H34.6097L31.2695 49.8545C31.2367 51.1429 31.4172 59.3417 40.4777 65.3574C49.5381 59.3335 49.7187 51.1347 49.6859 49.8545ZM35.652 51.2332C35.0447 51.9062 34.6836 52.9403 34.6836 52.9403C34.6836 52.9403 34.3142 51.898 33.7151 51.2332C33.1078 50.5685 32.0409 50.1828 32.0409 50.1828C32.0409 50.1828 33.1407 49.8627 33.8054 49.0994C34.3225 48.5167 34.6836 47.3185 34.6836 47.3185C34.6836 47.3185 35.0447 48.5085 35.5617 49.0994C36.2347 49.8627 37.3262 50.1828 37.3262 50.1828C37.3262 50.1828 36.2511 50.5603 35.652 51.2332Z" fill="#009EE6"/>
</g>
</svg>
