<svg width="49" height="60" viewBox="0 0 49 60" fill="none" xmlns="http://www.w3.org/2000/svg">
<g opacity="0.7">
<path d="M32.6621 20.7721H30.7428C30.5762 20.7721 30.4493 20.6372 30.4493 20.4786C30.4493 20.3121 30.5841 20.1852 30.7428 20.1852H32.6621C32.8286 20.1852 32.9555 20.32 32.9555 20.4786C32.9555 20.6452 32.8286 20.7721 32.6621 20.7721Z" fill="#15CE65"/>
<path d="M40.379 12.2859C40.0855 11.7862 39.4352 11.7624 39.4352 11.7624C39.7286 9.05796 39.8 6.78968 39.6176 5.21934C39.2607 2.14209 36.8258 1.08727 32.2179 0.793818C32.0434 0.785887 31.8689 0.777951 31.6945 0.77002C31.52 0.777951 31.3455 0.785887 31.171 0.793818C26.5631 1.08727 24.1283 2.14209 23.7714 5.21934C23.589 6.78968 23.6603 9.05796 23.9538 11.7624C23.9538 11.7624 23.4383 11.8576 23.0972 12.2859C22.78 12.6824 22.7086 13.2455 22.891 13.9593C23.1845 15.0855 23.9776 15.498 24.4058 15.6407C24.8024 17.4014 25.3893 19.2493 26.3172 20.6055C28.4903 23.77 31.5597 23.8097 31.6866 23.8097C31.8134 23.8097 34.9065 23.77 37.0796 20.6055C37.9996 19.2573 38.6024 17.4173 38.999 15.6645C39.3955 15.5455 40.2759 15.1569 40.5852 13.9593C40.7676 13.2455 40.6407 12.73 40.379 12.2859ZM39.8317 13.769C39.57 14.7842 38.8879 14.9824 38.3565 14.9904C37.9679 16.7828 37.3334 18.8448 36.4293 20.1693C34.5021 22.9848 31.7896 23.0324 31.6786 23.0324C31.5676 23.0324 28.879 22.9848 26.9517 20.1693C26.0476 18.8448 25.4131 16.8145 25.0245 15.0142C24.7231 14.9031 23.8983 14.7842 23.6365 13.769C23.5572 13.4517 23.4858 13.0155 23.6841 12.7855C24.0252 12.3811 24.4772 12.5476 24.5962 12.5793C24.5962 12.5793 24.5962 12.5793 24.5962 12.5714L24.62 12.5793C24.62 12.5793 24.9848 7.63037 26.111 6.87692C27.2452 6.12347 28.0383 6.95623 31.4328 6.95623C31.52 6.95623 31.5993 6.95623 31.6786 6.95623C31.7579 6.95623 31.8372 6.95623 31.9245 6.95623C35.3269 6.95623 36.1121 6.11554 37.2462 6.87692C38.3803 7.63037 38.7372 12.5793 38.7372 12.5793C38.7372 12.5793 39.3162 12.2621 39.7603 12.7776C39.9745 13.0076 39.911 13.4438 39.8317 13.769Z" fill="#15CE65"/>
<path d="M31.6628 30.099C32.1545 30.099 32.5352 29.8135 32.7414 29.6231L33.0824 28.5445L31.5438 26.8552L30.1955 28.4811L30.5286 29.5201C30.6317 29.6549 31.0362 30.099 31.6628 30.099Z" fill="#15CE65"/>
<path d="M32.8286 30.5272C32.5193 30.7176 32.1307 30.8762 31.6548 30.8762C31.1552 30.8762 30.7586 30.7017 30.4652 30.5034L30.3858 31.0507L27.6338 50.6007L31.6151 55.51L35.66 50.6007L32.9079 31.0507L32.8286 30.5272Z" fill="#15CE65"/>
<path d="M48.2941 31.7169C48.2228 29.2107 46.4462 28.3938 44.6062 27.5849C44.3048 27.45 43.8845 27.2835 43.3848 27.1011C42.5521 26.7918 41.4972 26.419 40.4662 26.0621C39.4193 25.7052 38.3803 25.3562 37.5952 25.0945C36.9765 23.8573 35.7234 23.1355 35.6679 23.1038L35.4538 22.9849L31.5755 25.61L27.9352 23.0007L27.721 23.1197C27.6734 23.1514 26.5314 23.8018 25.9048 24.9994C25.0959 25.269 23.9458 25.6497 22.7721 26.0542C21.7331 26.4111 20.6862 26.7759 19.8534 27.0931C19.3538 27.2835 18.9255 27.45 18.6321 27.5769C17.4979 28.0766 16.3876 28.5842 15.6896 29.4804H21.289H22.0503V30.2418V52.1631V52.9245H21.289H14.3176C15.531 53.6304 19.1159 55.2959 19.79 55.5497C19.9645 55.6131 20.1389 55.6766 20.3134 55.74C23.8427 56.9931 27.6338 57.6831 31.5914 57.699C35.5569 57.6911 39.3955 56.9931 42.9328 55.74C43.1072 55.6766 45.4865 54.709 45.4865 54.709C46.7 54.1618 47.8738 53.559 49 52.8769C48.9524 51.4176 48.3655 34.12 48.2941 31.7169ZM39.2289 32.7876H40.03V34.0407H39.2289V32.7876ZM33.0824 28.5445L32.7414 29.6231C32.5352 29.8214 32.1545 30.099 31.6628 30.099C31.0362 30.099 30.6317 29.6549 30.5286 29.52L30.1955 28.4811L31.5438 26.8552L33.0824 28.5445ZM30.3938 31.0507L30.4731 30.5035C30.7666 30.7018 31.1631 30.8762 31.6628 30.8762C32.1386 30.8762 32.5272 30.7176 32.8365 30.5273L32.9079 31.0507L35.66 50.6007L31.6152 55.51L27.6338 50.6007L30.3938 31.0507ZM35.4776 23.9128C35.7155 24.0714 36.12 24.3887 36.4769 24.8169C36.0645 26.9266 34.9065 28.8062 34.6845 29.1473L32.0355 26.2445L35.4776 23.9128ZM27.8955 23.9366L31.0679 26.2049L28.5855 29.1949C28.53 29.1076 27.2848 27.2042 26.801 25.0073C27.1659 24.4838 27.6338 24.119 27.8955 23.9366ZM42.3459 41.4959H36.9052V34.7387H42.3459V41.4959Z" fill="#009EE6"/>
<path d="M41.7034 35.6825H37.5476V36.2297H41.7034V35.6825Z" fill="#15CE65"/>
<mask id="path-7-outside-1" maskUnits="userSpaceOnUse" x="0.0769043" y="26.49" width="31" height="33" fill="black">
<rect fill="white" x="0.0769043" y="26.49" width="31" height="33"/>
<path d="M29.96 34.91L24.11 27.49H15.52H6.93003L1.08003 34.91C1.08003 34.91 0.490026 49.42 15.52 58.19C30.55 49.41 29.96 34.91 29.96 34.91ZM15.79 56.18L15.52 56.35L15.25 56.18C1.98003 47.63 2.82003 35.39 2.83003 35.26L2.84003 35.11L7.61003 29.18H23.41L28.18 35.11L28.19 35.26C28.22 35.39 29.07 47.64 15.79 56.18Z"/>
</mask>
<path d="M29.96 34.91L24.11 27.49H15.52H6.93003L1.08003 34.91C1.08003 34.91 0.490026 49.42 15.52 58.19C30.55 49.41 29.96 34.91 29.96 34.91ZM15.79 56.18L15.52 56.35L15.25 56.18C1.98003 47.63 2.82003 35.39 2.83003 35.26L2.84003 35.11L7.61003 29.18H23.41L28.18 35.11L28.19 35.26C28.22 35.39 29.07 47.64 15.79 56.18Z" fill="#15CE65"/>
<path d="M29.96 34.91L30.9592 34.8693L30.946 34.5454L30.7453 34.2909L29.96 34.91ZM24.11 27.49L24.8953 26.8709L24.595 26.49H24.11V27.49ZM6.93003 27.49V26.49H6.44502L6.14474 26.8709L6.93003 27.49ZM1.08003 34.91L0.294741 34.2909L0.0940277 34.5455L0.0808565 34.8694L1.08003 34.91ZM15.52 58.19L15.016 59.0537L15.5203 59.348L16.0244 59.0535L15.52 58.19ZM15.79 56.18L16.3229 57.0262L16.3309 57.0211L15.79 56.18ZM15.52 56.35L14.9872 57.1962L15.52 57.5317L16.0529 57.1962L15.52 56.35ZM15.25 56.18L14.7084 57.0207L14.7172 57.0262L15.25 56.18ZM2.83003 35.26L3.82714 35.3367L3.82782 35.3265L2.83003 35.26ZM2.84003 35.11L2.06083 34.4832L1.86321 34.7289L1.84224 35.0435L2.84003 35.11ZM7.61003 29.18V28.18H7.13105L6.83083 28.5532L7.61003 29.18ZM23.41 29.18L24.1892 28.5532L23.889 28.18H23.41V29.18ZM28.18 35.11L29.1778 35.0435L29.1568 34.7289L28.9592 34.4832L28.18 35.11ZM28.19 35.26L27.1922 35.3265L27.1976 35.4066L27.2156 35.4849L28.19 35.26ZM30.7453 34.2909L24.8953 26.8709L23.3247 28.1091L29.1747 35.5291L30.7453 34.2909ZM24.11 26.49H15.52V28.49H24.11V26.49ZM15.52 26.49H6.93003V28.49H15.52V26.49ZM6.14474 26.8709L0.294741 34.2909L1.86532 35.5291L7.71532 28.1091L6.14474 26.8709ZM1.08003 34.91C0.0808565 34.8694 0.0808333 34.8699 0.0808083 34.8706C0.0807971 34.8709 0.0807703 34.8715 0.0807483 34.8721C0.0807046 34.8732 0.0806534 34.8746 0.0805959 34.8762C0.0804807 34.8793 0.0803399 34.8834 0.0801813 34.8883C0.0798641 34.8981 0.0794755 34.9114 0.0790783 34.9282C0.0782838 34.9617 0.0774545 35.0088 0.0770923 35.0691C0.0763679 35.1896 0.0775108 35.3624 0.0845444 35.5825C0.0986079 36.0227 0.136246 36.653 0.229798 37.4333C0.416782 38.9928 0.827939 41.1581 1.72485 43.6054C3.523 48.5116 7.2692 54.5334 15.016 59.0537L16.024 57.3263C8.74085 53.0766 5.26706 47.4584 3.60271 42.9171C2.76837 40.6406 2.38765 38.6303 2.21557 37.1952C2.1296 36.4781 2.09591 35.9062 2.08352 35.5187C2.07734 35.325 2.07648 35.1775 2.07706 35.0811C2.07735 35.0329 2.07799 34.9976 2.07852 34.9756C2.07878 34.9646 2.079 34.957 2.07914 34.9528C2.07921 34.9507 2.07925 34.9495 2.07927 34.9491C2.07927 34.9489 2.07927 34.949 2.07926 34.9492C2.07926 34.9493 2.07924 34.9497 2.07924 34.9498C2.07922 34.9502 2.07921 34.9506 1.08003 34.91ZM16.0244 59.0535C23.7709 54.5283 27.517 48.5067 29.3152 43.6017C30.2121 41.1551 30.6233 38.9907 30.8103 37.4319C30.9038 36.6521 30.9414 36.0221 30.9555 35.5821C30.9625 35.3621 30.9637 35.1894 30.963 35.069C30.9626 35.0088 30.9618 34.9616 30.961 34.9281C30.9606 34.9114 30.9602 34.8981 30.9599 34.8883C30.9597 34.8833 30.9596 34.8793 30.9595 34.8762C30.9594 34.8746 30.9594 34.8732 30.9593 34.8721C30.9593 34.8715 30.9593 34.8708 30.9592 34.8705C30.9592 34.8699 30.9592 34.8693 29.96 34.91C28.9609 34.9507 28.9608 34.9502 28.9608 34.9498C28.9608 34.9497 28.9608 34.9494 28.9608 34.9492C28.9608 34.949 28.9608 34.949 28.9608 34.9491C28.9608 34.9495 28.9609 34.9507 28.9609 34.9528C28.9611 34.957 28.9613 34.9646 28.9615 34.9756C28.9621 34.9975 28.9627 35.0329 28.963 35.081C28.9636 35.1773 28.9627 35.3247 28.9565 35.5182C28.9442 35.9055 28.9105 36.477 28.8245 37.1937C28.6524 38.6281 28.2717 40.6374 27.4374 42.9133C25.773 47.4533 22.2992 53.0718 15.0156 57.3265L16.0244 59.0535ZM15.2572 55.3338L14.9872 55.5038L16.0529 57.1962L16.3229 57.0262L15.2572 55.3338ZM16.0529 55.5038L15.7829 55.3338L14.7172 57.0262L14.9872 57.1962L16.0529 55.5038ZM15.7917 55.3394C2.97586 47.082 3.82887 35.3134 3.82709 35.3367L1.83298 35.1833C1.81119 35.4666 0.984194 48.178 14.7084 57.0206L15.7917 55.3394ZM3.82782 35.3265L3.83782 35.1765L1.84224 35.0435L1.83224 35.1935L3.82782 35.3265ZM3.61923 35.7368L8.38923 29.8068L6.83083 28.5532L2.06083 34.4832L3.61923 35.7368ZM7.61003 30.18H23.41V28.18H7.61003V30.18ZM22.6308 29.8068L27.4008 35.7368L28.9592 34.4832L24.1892 28.5532L22.6308 29.8068ZM27.1822 35.1765L27.1922 35.3265L29.1878 35.1935L29.1778 35.0435L27.1822 35.1765ZM27.2156 35.4849C27.2085 35.454 27.2045 35.4298 27.2032 35.4212C27.2013 35.4098 27.2001 35.4008 27.1994 35.3957C27.1981 35.3857 27.1974 35.3788 27.1972 35.3773C27.1969 35.3737 27.1971 35.3752 27.1977 35.3834C27.1989 35.399 27.2008 35.4276 27.2027 35.4693C27.2066 35.5522 27.2104 35.6792 27.2105 35.8464C27.2107 36.1808 27.1958 36.6715 27.1372 37.288C27.0199 38.5215 26.7284 40.2516 26.0369 42.2374C24.6584 46.1962 21.6812 51.2026 15.2491 55.3389L16.3309 57.0211C23.1788 52.6174 26.4166 47.2288 27.9257 42.8951C28.6779 40.7347 28.9983 38.8441 29.1282 37.4773C29.1932 36.7936 29.2107 36.2393 29.2105 35.8455C29.2104 35.6487 29.2059 35.4908 29.2005 35.3758C29.1978 35.3186 29.1949 35.27 29.1919 35.231C29.1904 35.212 29.1887 35.1919 29.1867 35.1725C29.1858 35.1631 29.1843 35.1499 29.1823 35.1348C29.1818 35.1307 29.1764 35.0872 29.1644 35.0352L27.2156 35.4849Z" fill="white" mask="url(#path-7-outside-1)"/>
<path d="M8.30684 38.1945C8.09783 37.7978 7.81688 37.3427 7.46988 36.9635C7.1062 36.5614 6.63735 36.2434 6.23102 36.0132C6.6667 35.7792 7.17534 35.4388 7.58616 34.9694L8.30684 38.1945ZM8.30684 38.1945C8.51391 37.7978 8.79311 37.3428 9.14016 36.9635C9.50394 36.5613 9.97137 36.2431 10.376 36.0128M8.30684 38.1945L10.376 36.0128M8.29838 33.8093C8.11338 34.2063 7.87268 34.6425 7.58632 34.9692L8.29838 33.8093ZM8.29838 33.8093C8.48406 34.2079 8.72657 34.646 9.01597 34.9717C9.4286 35.4382 9.9397 35.7784 10.376 36.0128M8.29838 33.8093L10.376 36.0128M23.3397 29.8666L23.1896 29.6799H22.95H8.10003H7.86084L7.71074 29.8662L3.43074 35.1762L3.32642 35.3056L3.32036 35.4717C3.26722 36.9276 3.3379 47.7514 15.2454 55.5778L15.52 55.7583L15.7947 55.5778C27.7022 47.7514 27.7728 36.9276 27.7197 35.4717L27.7136 35.3059L27.6097 35.1766L23.3397 29.8666Z" fill="#15CE65" stroke="white"/>
</g>
</svg>
