<svg width="69" height="69" viewBox="0 0 69 69" fill="none" xmlns="http://www.w3.org/2000/svg">
<path d="M35.5617 43.8266C36.9273 43.8266 38.0367 42.7119 38.0367 41.345C38.0367 39.981 36.9273 38.874 35.5617 38.874L24.348 30.6262L33.0866 41.5042C33.1677 42.7991 34.2465 43.8266 35.5617 43.8266Z" fill="#15CE65"/>
<path d="M46.8591 53.1343H22.1411V57.0001H46.8591V53.1343Z" fill="#15CE65"/>
<path d="M55.929 20.8762C50.2049 15.1523 42.5946 12 34.5 12C26.4052 12 18.7948 15.1523 13.0709 20.8762C7.34694 26.6001 4.19482 34.2104 4.19482 42.3052C4.19482 47.5319 5.5116 52.5549 7.98392 56.9999H13.6481L17.7908 54.6079L15.9613 51.4388L10.6343 54.5146C8.75231 50.8504 7.68917 46.6997 7.68917 42.3052C7.68917 41.5275 7.7245 40.7578 7.78964 39.9966L14.1414 41.1166L14.7768 37.5128L8.35032 36.3798C9.49866 31.3095 12.0878 26.7803 15.6633 23.2462L20.0175 28.4354L22.8207 26.0834L18.4335 20.855C22.4564 17.8341 27.3535 15.9182 32.6704 15.5584V22.4986H36.3295V15.5584C41.6465 15.9185 46.5436 17.8343 50.5667 20.8551L46.1793 26.0834L48.9824 28.4354L53.3367 23.2461C56.912 26.7803 59.5012 31.3095 60.6495 36.3796L54.2232 37.513L54.8588 41.1164L61.2101 39.9963C61.2752 40.7577 61.3105 41.5272 61.3105 42.3049C61.3105 46.6997 60.2478 50.8506 58.3656 54.5145L53.0384 51.4389L51.209 54.6079L55.3516 56.9997H61.0161C63.4885 52.5546 64.8052 47.5316 64.8052 42.3049C64.8053 34.2102 61.6528 26.5998 55.929 20.8762Z" fill="#15CE65"/>
<circle opacity="0.2" cx="14" cy="24" r="14" fill="#009EE6"/>
</svg>
