<svg width="61" height="45" viewBox="0 0 61 45" fill="none" xmlns="http://www.w3.org/2000/svg">
<g opacity="0.7">
<path d="M8.02938 9.28524L7.09199 7.73894C7.09199 7.73894 2.47714 7.43448 1.52372 9.30125C0.818678 10.6793 2.381 11.3603 3.21423 11.4164C3.87922 11.4645 5.29732 11.4645 6.39495 11.4484C6.46705 11.3924 6.53917 11.3283 6.61127 11.2722C7.15608 10.8475 7.61276 10.1425 8.02938 9.28524Z" fill="#15CE65"/>
<path d="M45.4048 11.2802C45.4769 11.3443 45.549 11.4004 45.6211 11.4564C46.7108 11.4644 48.0728 11.4725 48.7217 11.4244C49.555 11.3603 51.1173 10.6873 50.4123 9.30926C49.4588 7.43448 44.844 7.74695 44.844 7.74695L43.9547 9.22113C44.3873 10.1024 44.852 10.8315 45.4048 11.2802Z" fill="#15CE65"/>
<path d="M1.96442 35.2597C1.96442 35.8686 2.46116 36.3654 3.07006 36.3654H7.94929C8.55819 36.3654 9.05493 35.8686 9.05493 35.2597V32.0069H1.97244V35.2597H1.96442Z" fill="#15CE65"/>
<path d="M5.50566 18.1143C4.63237 18.1143 3.91931 18.8274 3.91931 19.7007C3.91931 20.574 4.63237 21.287 5.50566 21.287C6.37896 21.287 7.09202 20.574 7.09202 19.7007C7.09202 18.8274 6.37896 18.1143 5.50566 18.1143ZM5.71398 20.9025C5.5938 20.6942 5.51368 20.4538 5.51368 20.1974C5.51368 19.6045 5.88223 19.0998 6.403 18.8915C6.6033 19.1078 6.72347 19.3962 6.72347 19.7087C6.72347 20.3016 6.29083 20.8063 5.71398 20.9025Z" fill="#15CE65"/>
<path d="M9.24722 18.571C8.49411 18.571 7.88519 19.1799 7.88519 19.933C7.88519 20.6861 8.49411 21.295 9.24722 21.295C10.0003 21.295 10.6092 20.6861 10.6092 19.933C10.6092 19.1799 9.99233 18.571 9.24722 18.571ZM9.42347 20.9585C9.31932 20.7823 9.25523 20.574 9.25523 20.3496C9.25523 19.8369 9.5757 19.4042 10.0164 19.228C10.1846 19.4122 10.2888 19.6606 10.2888 19.925C10.2888 20.4458 9.9122 20.8704 9.42347 20.9585Z" fill="#15CE65"/>
<path d="M46.4544 18.1143C47.3277 18.1143 48.0407 18.8274 48.0407 19.7007C48.0407 20.574 47.3277 21.287 46.4544 21.287C45.5811 21.287 44.868 20.574 44.868 19.7007C44.868 18.8274 45.5811 18.1143 46.4544 18.1143ZM46.2541 20.9025C46.3743 20.6942 46.4544 20.4538 46.4544 20.1974C46.4544 19.6045 46.0858 19.0998 45.565 18.8915C45.3647 19.1078 45.2446 19.3962 45.2446 19.7087C45.2366 20.3016 45.6772 20.8063 46.2541 20.9025Z" fill="#15CE65"/>
<path d="M42.7209 18.571C43.474 18.571 44.0829 19.1799 44.0829 19.933C44.0829 20.6861 43.474 21.295 42.7209 21.295C41.9677 21.295 41.3588 20.6861 41.3588 19.933C41.3588 19.1799 41.9677 18.571 42.7209 18.571ZM42.5446 20.9585C42.6487 20.7823 42.7128 20.574 42.7128 20.3496C42.7128 19.8369 42.3924 19.4042 41.9517 19.228C41.7835 19.4122 41.6793 19.6606 41.6793 19.925C41.6713 20.4458 42.0479 20.8704 42.5446 20.9585Z" fill="#15CE65"/>
<path d="M51.0452 21.4312C51.0131 20.8143 50.9731 20.2054 50.917 19.6205C50.6205 16.6 48.7618 14.9736 44.9241 11.8811C43.6663 10.8716 42.8731 8.77245 42.0398 6.54515C41.6793 5.58372 41.3027 4.58223 40.8861 3.6849C39.9648 1.69795 38.6268 0.680441 36.784 0.576287C35.1496 0.480144 31.0235 0.408036 26.0161 0.400024C21.0087 0.408036 16.8825 0.480144 15.2481 0.576287C13.4054 0.688453 12.0674 1.70597 11.146 3.6849C10.7294 4.58223 10.3529 5.5757 9.99232 6.53713C9.15107 8.75642 8.3659 10.8555 7.10803 11.873C3.27034 14.9656 1.41159 16.592 1.11515 19.6125C0.682511 24.0351 1.00299 29.7636 1.09112 31.2378H39.8366C39.4039 29.7075 39.0354 27.8327 39.8846 26.5107C40.9182 24.8923 41.9918 23.4182 43.3538 22.0882C41.7755 22.1042 40.1731 22.1042 38.8992 22.0481C36.4395 21.928 38.5947 19.5885 40.2532 18.2265C41.9116 16.8724 45.2286 17.0087 47.3036 17.1208C48.3532 17.1769 48.7298 17.6897 49.1464 19.6686C49.3627 20.6941 49.2024 21.271 48.89 21.6075C49.603 21.5434 50.3241 21.4793 51.0452 21.4312ZM12.508 28.6419C12.508 29.2989 12.0273 29.5953 11.4665 29.5953C9.62377 29.5953 5.70596 29.6033 4.34394 29.5953C3.67094 29.5953 3.27035 29.2829 3.26234 28.674C3.25433 27.5122 2.70151 24.5558 5.47362 24.5879C7.40448 24.6119 9.26324 24.5879 11.122 24.5879C11.9232 24.5879 12.5481 25.1407 12.5481 25.9659C12.5561 26.7831 12.508 27.5202 12.508 28.6419ZM13.0448 22.0481C10.5852 22.1683 6.88371 22.0561 4.51219 22.0561C3.82317 22.0561 2.30091 22.0481 2.80566 19.6766C3.22228 17.6977 3.59884 17.1849 4.64839 17.1288C6.72347 17.0087 10.0404 16.8725 11.6989 18.2345C13.3573 19.5885 15.5045 21.936 13.0448 22.0481ZM31.6644 28.9143H20.3677V26.2303H31.6644V28.9143ZM35.0375 22.633C33.8757 23.7226 29.8778 23.8829 26.1202 23.8909C26.1042 23.8909 26.0962 23.8909 26.0802 23.8909C26.0641 23.8909 26.0561 23.8909 26.0401 23.8909C22.2825 23.8829 18.2846 23.7226 17.1229 22.633C14.9356 20.5819 16.2897 18.9956 17.3713 19.0036C18.9897 19.0276 22.6671 19.0196 26.0401 19.0116C26.0561 19.0116 26.0641 19.0116 26.0802 19.0116C26.0962 19.0116 26.1042 19.0116 26.1202 19.0116C29.4932 19.0196 33.1707 19.0276 34.7891 19.0036C35.8707 18.9956 37.2247 20.5819 35.0375 22.633ZM24.614 16.4398C24.614 16.0953 25.2549 15.8229 26.0401 15.8229C26.8253 15.8229 27.4662 16.1033 27.4662 16.4398C27.4662 16.7843 26.8253 17.0567 26.0401 17.0567C25.2549 17.0567 24.614 16.7843 24.614 16.4398ZM10.3048 10.8395C10.6413 9.7579 10.9057 7.61873 11.9632 4.97481C12.484 3.67689 13.1891 2.12258 15.4724 1.75403C16.0813 1.65789 21.0087 1.58579 26.0161 1.56976C31.0235 1.57778 35.9508 1.65789 36.5597 1.75403C38.8431 2.12258 39.5481 3.67689 40.0689 4.97481C41.1265 7.61873 41.3909 9.7579 41.7274 10.8395H10.3048Z" fill="#15CE65"/>
<path d="M60.8918 26.8713L56.3971 21.1748H49.8033H43.2095L38.7149 26.8713C38.7149 26.8713 38.2662 38.0078 49.8033 44.7458C61.3404 38.0078 60.8918 26.8713 60.8918 26.8713ZM50.0116 43.2155L49.8033 43.3517L49.595 43.2155C39.3959 36.6538 40.0689 27.0315 40.0689 27.0315L43.7383 22.4727H55.8763L59.5458 27.0315L59.5538 27.1517C59.5538 27.2398 60.2028 36.6458 50.0116 43.2155Z" fill="#009EE6"/>
<path d="M55.5078 23.2419H44.1069L40.822 27.32C40.79 28.3695 40.814 36.5176 49.8033 42.4304C58.8087 36.5096 58.8247 28.3695 58.7846 27.32L55.5078 23.2419ZM45.1805 28.7061C44.6036 29.347 44.2591 30.3405 44.2591 30.3405C44.2591 30.3405 43.9066 29.347 43.3297 28.7061C42.7529 28.0651 41.7273 27.7046 41.7273 27.7046C41.7273 27.7046 42.7769 27.4001 43.4179 26.671C43.9066 26.1102 44.2591 24.9645 44.2591 24.9725C44.2591 24.9725 44.6036 26.1102 45.1004 26.671C45.7413 27.4001 46.7909 27.7046 46.7909 27.7046C46.7909 27.7046 45.7654 28.0651 45.1805 28.7061Z" fill="#009EE6"/>
</g>
</svg>
