<svg width="66" height="48" viewBox="0 0 66 48" fill="none" xmlns="http://www.w3.org/2000/svg">
<g opacity="0.7">
<path d="M29.76 10.8601L33.55 26.4501L37.07 9.16008L39.91 19.2201L42.91 11.8801L45.05 17.7901L55.19 17.6901C57.72 8.47007 53.8 0.160072 46.05 0.0300717C37.08 -0.109928 33.58 6.36007 33.58 6.36007C33.58 6.36007 30.09 -0.109928 21.11 0.0300717C13.28 0.150072 9.35999 8.63008 12.04 17.9601H27.37L29.76 10.8601ZM19.7 8.86007C18.99 9.64007 18.57 10.8601 18.57 10.8601C18.57 10.8601 18.14 9.64007 17.43 8.86007C16.72 8.08007 15.47 7.63008 15.47 7.63008C15.47 7.63008 16.75 7.26007 17.53 6.37007C18.13 5.69007 18.55 4.29007 18.55 4.29007C18.55 4.29007 18.97 5.68007 19.57 6.37007C20.35 7.26007 21.64 7.63008 21.64 7.63008C21.64 7.63008 20.4 8.08007 19.7 8.86007Z" fill="#15CE65"/>
<path d="M44.5 18.6001L42.87 14.1101L39.77 21.6801L37.19 12.5601L33.61 30.1301L29.63 13.7501L27.95 18.7601H12.3C12.82 20.3601 13.54 21.9801 14.46 23.5801C15.18 23.6301 15.74 23.8801 16.12 24.3601C16.64 25.0201 16.7 25.9601 16.62 26.7701C16.69 26.8601 16.77 26.9401 16.84 27.0301C17.93 26.2101 19.73 25.7401 21.12 26.8101C22.47 27.8501 22.36 29.4101 21.94 30.5601C22.95 30.2301 24.46 29.9401 25.43 30.7601C26.53 31.7001 26.31 33.7001 25.9 34.8501C25.91 34.8501 25.91 34.8601 25.92 34.8601C26.3 34.7601 26.56 34.6101 27.02 34.7301C27.58 34.8701 28.14 35.4301 28.47 35.9901C28.55 36.1201 28.61 36.2601 28.67 36.4001C30.2 37.1701 31.84 37.8901 33.59 38.5301C34.92 38.0401 36.16 37.5001 37.35 36.9401C37.44 36.5901 37.56 36.2601 37.72 35.9801C38.04 35.4301 38.6 34.8701 39.17 34.7201C39.64 34.6001 39.9 34.7601 40.3 34.8601C39.89 33.7101 39.66 31.6901 40.77 30.7501C41.74 29.9301 43.26 30.2101 44.26 30.5501C43.84 29.4001 43.73 27.8401 45.08 26.8001C46.59 25.6301 48.59 26.2801 49.64 27.2301C49.5 26.3501 49.46 25.1401 50.08 24.3501C50.56 23.7401 51.32 23.4801 52.32 23.5701C52.44 23.5801 52.56 23.6101 52.68 23.6301C53.8 21.7101 54.95 18.4801 54.95 18.4801L44.5 18.6001Z" fill="#15CE65"/>
<path d="M62.33 30.1101C62.33 28.7001 62.38 22.1301 63.47 19.9501C64.69 17.5101 62.62 15.5201 60.24 17.6801C58.11 19.6101 56.27 22.4801 56.49 24.9901C58.69 26.2501 60.69 28.1801 62.33 30.1101Z" fill="#009EE6"/>
<path d="M45.11 32.68C44.87 32.33 44.67 32.0101 44.5 31.7501C43.54 30.7701 42.02 30.77 41.28 31.4C40.37 32.18 40.87 34.5501 41.27 35.3801C42.22 37.1501 44.75 41.6001 48.12 45.2701C50.28 46.6501 52.27 47.0201 53.76 46.1101C54.28 45.7901 54.64 44.6201 54.69 43.7001C50.51 40.3501 46.9 35.38 45.11 32.68ZM42.09 34.6001C41.7 34.0501 40.91 32.7201 41.94 31.9801C42.97 31.2401 43.91 32.1901 44.45 32.9601C44.96 33.7101 42.48 35.1601 42.09 34.6001Z" fill="#009EE6"/>
<path d="M40.89 36.3601C40.85 36.2901 40.81 36.2201 40.78 36.1501C40.59 35.8401 40.16 35.3301 39.38 35.5301C39.03 35.6201 38.46 35.9701 38.25 36.3401C37.94 36.8601 37.84 37.6201 37.83 38.4001C37.84 38.5101 37.84 38.6301 37.85 38.7401C38.22 42.3901 41.15 46.4401 43.41 47.2601C46.16 48.2601 47.35 47.3501 47.53 45.8101C44.4 42.4201 42.02 38.4401 40.89 36.3601ZM38.78 38.9601C38.45 38.4001 38 37.0401 39.04 36.4201C40.09 35.8001 40.45 37.0101 40.9 37.7901C41.32 38.5301 39.11 39.5201 38.78 38.9601Z" fill="#009EE6"/>
<path d="M50.18 28.9401C49.29 27.6601 47.27 26.1501 45.57 27.4601C43.9 28.7401 44.89 30.6801 45.6 31.9401C47.11 34.5901 50.84 39.5901 55.04 42.9501C58.66 44.1001 60.49 43.1201 61.11 40.6201C55.49 36.6401 51.03 30.2101 50.18 28.9401ZM46.25 31.2201C45.77 30.5701 44.79 29.0001 46 28.0801C47.22 27.1601 48.37 28.2801 49.03 29.1901C49.67 30.0601 46.74 31.8701 46.25 31.2201Z" fill="#009EE6"/>
<path d="M65.51 36.0001C65.48 35.9201 65.45 35.8401 65.42 35.7601C64.58 34.4101 62.96 31.9901 60.89 29.7301C59.65 28.3801 58.24 27.0801 56.74 26.1001C55.31 25.1701 53.79 24.5201 52.25 24.3901C51.51 24.3301 51.02 24.4801 50.72 24.8601C50.22 25.5001 50.34 26.6901 50.51 27.4901C50.56 27.7401 50.98 28.6501 51.32 29.1301C52.79 31.2101 56.87 36.6301 61.72 40.0401C65.3 41.0601 66.15 38.0101 65.51 36.0001ZM52.26 28.5001C51.68 27.9601 50.46 26.6501 51.45 25.5501C52.44 24.4501 53.75 25.3101 54.55 26.0601C55.31 26.7701 52.84 29.0301 52.26 28.5001Z" fill="#009EE6"/>
<path d="M4.22 29.7001C5.89 27.8101 7.89 25.9601 10.08 24.7901C10.18 22.3201 8.38 19.5501 6.31 17.6801C3.93 15.5201 1.86 17.5201 3.08 19.9501C4.09 21.9601 4.21 27.7201 4.22 29.7001Z" fill="#009EE6"/>
<path d="M24.91 31.4001C24.18 30.7701 22.65 30.7801 21.69 31.7501C21.52 32.0201 21.32 32.3301 21.08 32.6801C19.29 35.3801 15.69 40.3501 11.49 43.7001C11.54 44.6201 11.89 45.7901 12.42 46.1101C13.91 47.0201 15.89 46.6501 18.06 45.2701C21.43 41.5901 23.97 37.1501 24.91 35.3801C25.31 34.5401 25.82 32.1701 24.91 31.4001ZM24 34.6001C23.61 35.1501 21.13 33.7001 21.64 32.9601C22.17 32.1901 23.12 31.2401 24.15 31.9801C25.18 32.7201 24.39 34.0501 24 34.6001Z" fill="#009EE6"/>
<path d="M20.59 31.94C21.23 30.64 22.29 28.75 20.62 27.46C18.92 26.15 16.89 27.66 16.01 28.94C15.16 30.21 10.71 36.64 5.08 40.63C5.7 43.12 7.51001 44.1 11.1 42.98C15.27 39.59 18.9 34.49 20.59 31.94ZM17.05 29.19C17.71 28.28 18.87 27.16 20.08 28.08C21.3 29 20.32 30.56 19.83 31.22C19.35 31.87 16.41 30.06 17.05 29.19Z" fill="#009EE6"/>
<path d="M27.96 36.3401C27.75 35.9801 27.18 35.6201 26.83 35.5301C26.05 35.3301 25.61 35.8501 25.43 36.1501C25.4 36.2101 25.36 36.2801 25.32 36.3501C24.18 38.4301 21.8 42.4101 18.69 45.8001C18.88 47.3401 20.06 48.2601 22.81 47.2501C25.07 46.4301 28 42.3801 28.37 38.7301C28.38 38.6101 28.39 38.5001 28.39 38.3901C28.37 37.6201 28.26 36.8601 27.96 36.3401ZM27.3 38.9601C26.97 39.5201 24.76 38.5301 25.18 37.7801C25.62 37.0001 25.99 35.8001 27.04 36.4101C28.09 37.0401 27.63 38.4001 27.3 38.9601Z" fill="#009EE6"/>
<path d="M15.26 28.6001C15.37 28.4401 15.47 28.2401 15.52 28.1101C15.76 27.5001 16.13 25.7 15.48 24.87C15.18 24.49 14.68 24.33 13.95 24.4C12.57 24.52 11.21 25.0501 9.92 25.8201C8.13 26.8901 6.46999 28.4401 5.03999 30.0301C3.09999 32.2001 1.58 34.46 0.779997 35.76C0.749997 35.84 0.720001 35.9201 0.690001 36.0001C0.0500007 38.0101 0.9 41.0501 4.47 40.0601C9.84 36.2901 14.27 30.0501 15.26 28.6001ZM11.54 26.0501C12.34 25.3001 13.65 24.45 14.64 25.54C15.63 26.64 14.41 27.9501 13.83 28.4901C13.25 29.0301 10.77 26.7701 11.54 26.0501Z" fill="#009EE6"/>
</g>
</svg>
