<svg width="72" height="74" viewBox="0 0 72 74" fill="none" xmlns="http://www.w3.org/2000/svg">
<g opacity="0.7">
<path d="M53.55 43.3599C54.51 43.2599 55.49 43.13 56.44 43.17C56.81 36.16 55.84 30.3199 54.67 26.7999C54.47 26.1899 54.24 25.5599 54.01 24.9299C53.72 24.5299 53.45 24.1099 53.21 23.6799C52.97 24.1099 52.74 24.5399 52.49 24.9799C53.15 27.4999 53.74 30.2699 53.88 32.6799C54.15 36.8899 53.93 40.4999 53.55 43.3599Z" fill="#15CE65"/>
<path d="M71.95 13.97C68.64 11.01 62.64 11.63 62.36 11.63C62.36 12.13 62.23 12.7 61.89 13.4C61.61 12.89 60.95 12.12 60.35 11.69C59.23 11.76 58.39 11.86 58.04 11.91C57.92 11.93 57.85 11.94 57.85 11.94C57.85 11.94 59.82 9.10004 60.97 5.88004C60.28 5.17004 59.32 5.04003 58.85 4.81003C59.96 4.33003 60.78 4.31004 61.5 4.10004C61.84 2.66004 61.92 1.23002 61.5 0.0200195C61.47 0.0300195 61.44 0.0400183 61.41 0.0500183C57.08 1.12002 54.38 3.87004 52.81 6.20004C53.34 6.56004 54.07 7.46002 54.29 7.86002C53.57 7.96002 52.65 7.55004 51.94 7.63004C51.21 8.99004 50.91 9.97003 50.91 9.97003C50.91 9.97003 50.9 9.96004 50.89 9.95004C50.81 9.86004 49.7 8.73004 47.94 7.35004C47.67 7.82004 46.84 8.69004 46.12 8.57004C46.4 7.98004 46.56 6.75003 46.62 6.37003C45.49 5.57003 44.2 4.76002 42.8 4.08002C42.54 4.39002 42.55 4.88002 41.8 5.36002C41.88 4.37002 41.53 3.79004 41.18 3.38004C39.81 2.86004 38.38 2.49005 36.92 2.39005C36.92 2.39005 36.92 2.39002 36.92 2.40002C36.65 3.42002 37.43 5.47002 38.86 7.65002C39.69 7.78002 40.64 7.74002 41.35 7.58002C41.27 8.13002 40.56 8.77004 39.98 9.20004C41.55 11.2 43.59 13.12 45.79 14.28C45.85 14.31 45.91 14.35 45.97 14.38C42.95 14.15 40.41 14.49 38.3 15.18C38.66 15.38 39.12 15.96 39.02 16.25C38.35 16.21 37.24 15.86 36.58 15.87C34.48 16.85 32.89 18.21 31.71 19.64C31.7 19.65 31.7 19.65 31.69 19.66C33.02 20.09 34.47 20.36 35.92 20.52C36.31 20.27 36.85 19.65 37.03 19.32C37.11 19.54 37.03 20.33 37 20.62C38.65 20.74 40.27 20.73 41.69 20.67C41.94 20.01 42.18 18.89 42.25 18.51C42.62 18.93 42.73 20.2 42.65 20.62C44.88 20.47 46.42 20.22 46.42 20.22C46.42 20.22 46.4 20.25 46.37 20.3C46.24 20.54 45.83 21.3 45.39 22.37C46.1 22.71 46.66 23.31 46.86 23.74C46.27 23.78 45.47 23.9 44.72 24.2C44.23 25.74 43.87 27.53 44.04 29.19C44.46 29.19 45.04 29.15 45.49 29.33C45.08 29.54 44.57 30.02 44.27 30.43C44.42 30.82 44.7 31.48 44.96 31.89C44.99 31.94 45.02 31.99 45.05 32.03C47.35 31.7 49.16 29.63 50.45 27.45C50.15 26.83 49.62 26.11 48.91 25.75C49.9 25.58 50.61 25.58 51.3 25.88C52.31 23.82 52.83 22.03 52.83 22.03C52.83 22.03 52.84 22.06 52.86 22.08C52.99 22.31 53.75 23.7 54.91 25.43C55.63 25.27 56.34 24.97 56.87 24.93C56.79 25.4 56.42 26.21 55.8 26.71C57.45 28.98 59.59 31.44 61.76 32.47C61.77 32.47 61.78 32.48 61.78 32.48C63.11 30.37 62.75 27.47 61.92 24.85C61.41 24.84 60.61 25.02 60.01 24.99C60.78 24.46 61.3 23.86 61.45 23.52C60.49 21.05 59.27 19.06 58.95 18.54C58.9 18.46 58.86 18.4 58.86 18.4C58.86 18.4 61.23 18.28 63.65 18.01L63.14 16.24C63.14 16.24 64.22 16.67 65.05 17.56C69.15 16.62 71.95 13.97 71.95 13.97Z" fill="#15CE65"/>
<path d="M42.51 44.1001C43.34 43.4601 44.27 43.1601 45.24 43.0801C42.75 36.2301 37.94 24.1801 30.6 10.7601C30.52 10.6201 30.44 10.4701 30.37 10.3301V49.0101H38.72C39.54 47.2301 41.06 45.2201 42.51 44.1001Z" fill="#15CE65"/>
<path d="M29.41 7.62012H28.45V54.0701H29.41V7.62012Z" fill="#15CE65"/>
<path d="M39.44 57.2801C39.06 56.1401 38.5 54.6902 38.4 53.3802C25.72 52.7802 8.44998 52.0101 4.22998 52.0801L5.54998 53.7801L6.12998 54.5301L9.97998 59.4901C9.97998 59.4901 12.21 60.5501 13.02 60.5901C17.03 60.8001 21.23 58.3001 21.23 58.3001C21.23 58.3001 24.9 60.5501 26.51 60.8001C28.27 61.0701 32.24 60.4202 35.04 58.7002C37.04 60.1102 38.95 60.7801 40.67 61.0001C40.15 59.8101 39.83 58.4601 39.44 57.2801Z" fill="#15CE65"/>
<path d="M26.69 34.4001C25.6 26.4301 27.63 9.30005 27.63 9.30005L27.39 9.73007L5.19 50.3401H24.78H34.07C29.89 46.3301 27.37 39.3401 26.69 34.4001Z" fill="#009EE6"/>
<path d="M40.23 60.3901C38.73 60.1001 37.14 59.4401 35.59 58.1701L35.36 57.9901L35.13 58.1701C31.08 61.2701 24.51 60.5901 21.55 57.9401L21.35 57.7601L21.11 57.9001C15.79 61.1001 10.78 60.9001 6.62001 57.3201L6.37001 57.1001L6.13001 57.3301C5.29001 58.1101 3.87001 58.7001 2.48001 59.1301C1.91001 59.3101 1.34001 59.4501 0.820007 59.5801C0.900007 59.8201 0.980007 60.0501 1.06001 60.2901C1.67001 60.1401 2.34001 59.9601 3.02001 59.7401C4.27001 59.3301 5.52001 58.7901 6.39001 58.0901C10.71 61.6501 15.84 61.8601 21.27 58.6801C24.47 61.3201 31.11 61.9801 35.35 58.9401C37.16 60.3401 38.99 61.0001 40.7 61.2201C40.53 60.9901 40.34 60.7001 40.23 60.3901Z" fill="#585858"/>
<path d="M43.24 65.1301C43.08 64.9701 42.88 64.7701 42.71 64.5501C40.55 64.6701 38.03 64.1601 35.58 62.1701L35.35 61.9801L35.12 62.1601C31.07 65.2601 24.5 64.5801 21.54 61.9301L21.34 61.7501L21.1 61.8901C15.78 65.0901 10.77 64.8901 6.61002 61.3101L6.36002 61.0901L6.12002 61.3201C5.28002 62.1001 3.86002 62.6901 2.47002 63.1201C2.25002 63.1901 2.04002 63.2501 1.83002 63.3101C1.88002 63.5501 1.94002 63.8001 1.99002 64.0401C2.33002 63.9501 2.67002 63.8501 3.02002 63.7301C4.27002 63.3201 5.52002 62.7801 6.39002 62.0801C10.71 65.6401 15.84 65.8501 21.27 62.6701C24.47 65.3101 31.11 65.9701 35.35 62.9301C38.14 65.0901 40.98 65.4901 43.36 65.2401C43.32 65.2101 43.28 65.1701 43.24 65.1301Z" fill="#585858"/>
<path d="M65.96 49.91L60.11 42.49H51.52H42.93L37.08 49.91C37.08 49.91 36.49 64.42 51.52 73.19C66.55 64.41 65.96 49.91 65.96 49.91ZM51.79 71.18L51.52 71.35L51.25 71.18C37.98 62.63 38.82 50.39 38.83 50.26L38.84 50.11L43.61 44.18H59.41L64.18 50.11L64.19 50.26C64.22 50.39 65.07 62.64 51.79 71.18Z" fill="#009EE6"/>
<path d="M58.95 45.1799H44.1L39.82 50.4899C39.77 51.8599 39.82 62.4699 51.52 70.1599C63.22 62.4699 63.27 51.8599 63.22 50.4899L58.95 45.1799ZM45.51 52.2999C44.75 53.1299 44.31 54.4299 44.31 54.4299C44.31 54.4299 43.86 53.1299 43.1 52.2999C42.35 51.4699 41.01 50.9899 41.01 50.9899C41.01 50.9899 42.37 50.6 43.21 49.64C43.85 48.91 44.3 47.4199 44.3 47.4299C44.3 47.4299 44.75 48.92 45.39 49.64C46.23 50.59 47.59 50.9899 47.59 50.9899C47.59 50.9899 46.26 51.4699 45.51 52.2999Z" fill="#009EE6"/>
</g>
</svg>
