<svg width="58" height="60" viewBox="0 0 58 60" fill="none" xmlns="http://www.w3.org/2000/svg">
<g opacity="0.7">
<path d="M27.5237 32.4602L27.3423 32.3566C27.3336 32.3479 27.109 32.227 26.6944 32.0542V54.2639C26.6944 57.0456 25.2258 58.3154 23.8696 58.3154C22.5479 58.3154 21.1225 57.0456 21.1225 54.2639C21.1225 53.7975 20.751 53.426 20.2846 53.4174H20.2759C19.8094 53.4174 19.4294 53.7975 19.4294 54.2639C19.4294 58.2118 21.7272 60 23.8609 60C26.107 60 28.3789 58.0304 28.3789 54.2639V32.106C27.9556 32.2615 27.7137 32.3738 27.7051 32.3738L27.5237 32.4602Z" fill="#009EE6"/>
<path d="M28.3876 4.6009V1.83657C28.3876 1.37008 28.0075 0.98999 27.541 0.98999C27.0745 0.98999 26.6944 1.37008 26.6944 1.83657V4.6009C26.9795 4.59226 27.2559 4.57499 27.541 4.57499C27.826 4.58363 28.1025 4.59226 28.3876 4.6009Z" fill="#009EE6"/>
<path d="M11.6806 31.2855C12.795 30.7326 15.3434 29.7478 19.3948 29.7478H19.4812C22.7898 29.7737 25.3468 30.5944 26.6944 31.1473C26.8326 31.1991 26.9363 31.2509 27.04 31.2941V5.75854C24.768 6.75198 12.3199 12.989 11.6806 31.2855Z" fill="#15CE65"/>
<path d="M27.9124 5.77576V31.3977C28.0506 31.3459 28.2061 31.2854 28.3875 31.225C29.7956 30.7326 32.56 29.9465 36.0672 29.9033L36.3523 29.8946C39.2462 29.8946 41.9674 30.8017 43.2459 31.3027C42.5634 13.49 30.599 7.01107 27.9124 5.77576Z" fill="#15CE65"/>
<path d="M29.26 5.48206C33.277 7.62442 43.5482 14.734 44.1184 31.4409C45.1896 31.0436 48.0662 30.102 51.5043 30.102C51.703 30.102 51.8931 30.1106 52.0831 30.1192C54.4501 30.2229 56.3247 30.9053 57.2576 31.32C56.3419 17.2996 42.0106 6.39774 29.26 5.48206Z" fill="#15CE65"/>
<path d="M0.580017 31.2767C1.53026 30.8016 3.36163 30.0155 5.35714 29.9637L5.55583 29.955C7.72411 29.955 9.79736 30.8102 10.8167 31.3026C11.3782 14.5006 21.6754 7.54661 25.6059 5.49927C12.7172 6.56181 1.40932 18.0684 0.580017 31.2767ZM7.59453 26.4478C6.97255 27.1302 6.60973 28.1928 6.60973 28.1928C6.60973 28.1928 6.23827 27.1302 5.6163 26.4478C5.00296 25.7653 3.9145 25.3766 3.9145 25.3766C3.9145 25.3766 5.02888 25.057 5.71132 24.2795C6.23828 23.6834 6.60109 22.4654 6.60109 22.4654C6.60109 22.4654 6.97255 23.6834 7.49087 24.2795C8.17331 25.057 9.28769 25.3766 9.28769 25.3766C9.28769 25.3766 8.20787 25.7653 7.59453 26.4478Z" fill="#15CE65"/>
</g>
</svg>
