<svg width="52" height="51" viewBox="0 0 52 51" fill="none" xmlns="http://www.w3.org/2000/svg">
<path opacity="0.7" d="M18.3158 24.8873C18.7005 24.5026 18.8929 24.0402 18.8929 23.5C18.8929 22.9598 18.7005 22.4974 18.3158 22.1127C17.9312 21.7281 17.4688 21.5357 16.9286 21.5357C16.3884 21.5357 15.926 21.7281 15.5413 22.1127C15.1566 22.4974 14.9643 22.9598 14.9643 23.5C14.9643 24.0402 15.1566 24.5026 15.5413 24.8873C15.926 25.2719 16.3884 25.4643 16.9286 25.4643C17.4688 25.4643 17.9312 25.2719 18.3158 24.8873ZM19.3348 19.5714H31.808L30.7154 15.1886C30.699 15.1231 30.6417 15.0536 30.5435 14.9799C30.4453 14.8981 30.3594 14.8571 30.2857 14.8571H20.8571C20.7835 14.8571 20.6975 14.8981 20.5993 14.9799C20.5011 15.0536 20.4438 15.1231 20.4275 15.1886L19.3348 19.5714ZM35.6016 24.8873C35.9862 24.5026 36.1786 24.0402 36.1786 23.5C36.1786 22.9598 35.9862 22.4974 35.6016 22.1127C35.2169 21.7281 34.7545 21.5357 34.2143 21.5357C33.6741 21.5357 33.2117 21.7281 32.827 22.1127C32.4423 22.4974 32.25 22.9598 32.25 23.5C32.25 24.0402 32.4423 24.5026 32.827 24.8873C33.2117 25.2719 33.6741 25.4643 34.2143 25.4643C34.7545 25.4643 35.2169 25.2719 35.6016 24.8873ZM38.1429 22.3214V27.0357C38.1429 27.1503 38.106 27.2444 38.0324 27.3181C37.9587 27.3917 37.8646 27.4286 37.75 27.4286H36.5714V29C36.5714 29.6548 36.3423 30.2113 35.8839 30.6696C35.4256 31.128 34.869 31.3571 34.2143 31.3571C33.5595 31.3571 33.003 31.128 32.5446 30.6696C32.0863 30.2113 31.8571 29.6548 31.8571 29V27.4286H19.2857V29C19.2857 29.6548 19.0565 30.2113 18.5982 30.6696C18.1399 31.128 17.5833 31.3571 16.9286 31.3571C16.2738 31.3571 15.7173 31.128 15.2589 30.6696C14.8006 30.2113 14.5714 29.6548 14.5714 29V27.4286H13.3929C13.2783 27.4286 13.1842 27.3917 13.1105 27.3181C13.0368 27.2444 13 27.1503 13 27.0357V22.3214C13 21.5603 13.266 20.9137 13.798 20.3817C14.3382 19.8415 14.9888 19.5714 15.75 19.5714H16.0938L17.3828 14.4275C17.5711 13.6581 17.9967 13.0156 18.6596 12.5C19.3225 11.9762 20.0551 11.7143 20.8571 11.7143H30.2857C31.0878 11.7143 31.8203 11.9762 32.4833 12.5C33.1462 13.0156 33.5718 13.6581 33.76 14.4275L35.0491 19.5714H35.3929C36.154 19.5714 36.8006 19.8415 37.3326 20.3817C37.8728 20.9137 38.1429 21.5603 38.1429 22.3214Z" fill="#15CE65"/>
<g opacity="0.7">
<path d="M51.8887 12.7811L41.3733 0.601074H25.9471H10.5208L0.00546649 12.7811C0.00546649 12.7811 -1.0442 36.593 25.9471 51C52.9383 36.593 51.8887 12.7811 51.8887 12.7811ZM26.4344 48.728L25.9471 49.0193L25.4597 48.728C1.59868 34.6979 3.1732 14.1238 3.1732 14.1238L11.7579 4.37631H25.9564H40.1549L48.7397 14.1238L48.7584 14.3807C48.7584 14.5692 50.2767 34.6807 26.4344 48.728Z" fill="#009EE6"/>
</g>
</svg>
