<svg width="60" height="57" viewBox="0 0 60 57" fill="none" xmlns="http://www.w3.org/2000/svg">
<g opacity="0.7">
<path d="M54.6886 17.8719L50.0289 18.9202L49.9389 18.9611C49.5622 19.2805 49.1773 19.5917 48.7842 19.9111L48.1045 20.4598L53.8697 19.1577L58.0954 37.911L23.4303 45.7317C23.2993 46.0593 23.1191 46.3787 23.0044 46.6408C22.9553 46.7472 22.9144 46.8537 22.8652 46.9683L59.1927 38.7791L59.3893 38.7381L54.6886 17.8719Z" fill="#009EE6"/>
<path d="M54.5494 30.2378L53.9598 27.6254L53.3702 25.0212L52.9198 25.0622C49.079 25.4061 48.1209 22.2123 48.0799 22.0813L47.9489 21.6145L47.4739 21.721L46.655 21.9093C46.1309 22.3188 45.615 22.7364 45.0991 23.1459C45.0008 23.2278 44.8943 23.3015 44.7879 23.3834L47.2692 22.8265C47.7196 23.8502 49.1445 26.225 52.5595 26.1268L52.9526 27.8629L53.5422 30.4753L53.9353 32.2114C50.807 33.5872 50.5367 36.3387 50.5695 37.4607L47.0481 38.255L24.323 43.3815C24.3066 43.5617 24.2738 43.7336 24.2329 43.8565C24.1919 44.0203 24.1346 44.2578 24.0609 44.4952L47.2774 39.2623L51.2328 38.3697L51.7078 38.2632L51.6259 37.7801C51.6013 37.6408 51.1018 34.3488 54.7132 33.0057L55.1391 32.8501L54.5494 30.2378Z" fill="#009EE6"/>
<path d="M39.1045 32.3424C38.8179 31.0567 38.1464 29.9511 37.2374 29.124C36.443 29.7055 35.5831 30.1886 34.797 30.7864C33.8798 31.4825 33.0854 32.3096 32.1846 33.0139C33.0772 33.5872 34.9362 33.2514 35.3293 35.0203C35.5504 35.9948 35.0836 36.8055 34.1418 37.1577L34.3711 38.1895L33.7569 38.3287L33.5276 37.3133C32.8561 37.4033 32.1273 37.2232 31.6114 36.9202L31.8652 36.2487C32.3893 36.5271 32.979 36.7154 33.6095 36.5762C34.3629 36.4043 34.6496 35.9047 34.5103 35.266C34.2155 33.9557 32.4303 34.2996 31.4639 33.5216C31.4639 33.5216 31.464 33.5216 31.4558 33.5298C31.3084 33.6199 31.1691 33.6117 31.0627 33.5462C30.9316 33.6363 30.8006 33.7346 30.6696 33.8246C30.0472 34.2914 29.3921 34.7255 28.7369 35.1431C28.4667 35.397 28.1964 35.6508 27.9426 35.9129C27.9671 36.003 27.9508 36.1013 27.8689 36.1913C27.7378 36.3306 27.5986 36.4616 27.4594 36.5844C28.7369 39.0412 31.5458 40.4334 34.3711 39.8028C37.7533 39.0576 39.8661 35.7082 39.1045 32.3424Z" fill="#009EE6"/>
<path d="M43.1172 30.2869L42.5194 30.7865L42.1673 30.4016L43.0681 29.5171L43.6332 29.3861L44.3538 32.5799L44.9598 32.4735L45.0745 32.9648L43.0681 33.4152L42.9616 32.9402L43.5103 32.7847C43.6168 32.7519 43.6659 32.7028 43.6332 32.5554L43.1172 30.2869Z" fill="#009EE6"/>
<path d="M47.6705 30.3851C47.9817 31.7527 47.6377 32.4406 46.7615 32.6371C45.877 32.8337 45.3038 32.3505 45.0008 31.0075C44.6978 29.6808 45.1072 28.9684 45.9344 28.78C46.7369 28.5998 47.3593 29.0257 47.6705 30.3851ZM46.9826 30.5489C46.7451 29.5006 46.4175 29.2632 46.0408 29.3532C45.6395 29.4433 45.4594 29.8282 45.7051 30.9174C45.9262 31.9165 46.2455 32.1703 46.6386 32.0803C47.0235 31.9984 47.2364 31.6462 46.9826 30.5489Z" fill="#009EE6"/>
<path d="M50.7578 29.6891C51.069 31.0567 50.7251 31.7446 49.8488 31.9411C48.9644 32.1376 48.3911 31.6545 48.0881 30.3114C47.7851 28.9848 48.1946 28.2723 49.0217 28.084C49.8242 27.9038 50.4466 28.3296 50.7578 29.6891ZM50.0699 29.8528C49.8324 28.8046 49.5049 28.5671 49.1282 28.6572C48.7269 28.7473 48.5467 29.1322 48.7924 30.2213C49.0135 31.2204 49.3329 31.4743 49.726 31.3842C50.1109 31.3023 50.3156 30.9502 50.0699 29.8528Z" fill="#009EE6"/>
<path d="M2.4822 30.9583L39.7678 2.1731L51.5112 17.3887L25.4121 37.5342C25.494 37.8045 25.5267 38.1402 25.5267 38.2139C25.5349 38.3941 25.5513 38.5825 25.5513 38.7872L53.018 17.5771L39.948 0.649902L0.950806 30.7535L4.60321 35.4869C4.7588 35.274 4.90621 35.0611 5.03723 34.84C5.10275 34.7335 5.15189 34.6189 5.20921 34.5042L2.4822 30.9583Z" fill="#009EE6"/>
<path d="M46.6795 14.0392L45.0498 11.9264L43.412 9.80539L41.7823 7.69257L41.3892 7.92187C38.048 9.85453 35.8369 7.365 35.7468 7.25854L35.4275 6.89001L35.0426 7.18483L31.8324 9.66617L11.7442 25.1766L8.534 27.6579L8.14911 27.9609L8.42754 28.3622C8.48486 28.4441 9.43482 29.8854 8.9926 31.6952C9.10725 31.7034 9.19733 31.7116 9.2219 31.7116C9.49214 31.7198 9.77058 31.728 10.0408 31.728C10.3438 30.1802 9.84429 28.8536 9.52491 28.2066L12.3829 25.9955L32.4711 10.4851L35.3292 8.274C36.1727 9.01103 38.4657 10.5588 41.5203 9.02741L42.6094 10.436L44.2473 12.557L45.3365 13.9655C43.0762 16.5369 44.0016 19.1411 44.5011 20.1484L41.6431 22.3595L24.3147 35.7407C24.5604 35.9782 24.7896 36.2648 24.9371 36.5596L42.2737 23.1702L45.4839 20.6889L45.8687 20.3859L45.5903 19.9846C45.5084 19.87 43.6659 17.0938 46.3765 14.3504L46.6795 14.0392Z" fill="#009EE6"/>
<path d="M31.9471 20.3531C29.8342 17.6179 25.9116 17.1184 23.1846 19.223C20.4494 21.3358 19.9498 25.2585 22.0545 27.9855C24.1673 30.7207 28.0899 31.2202 30.817 29.1156C33.544 27.0109 34.0517 23.0883 31.9471 20.3531ZM29.6295 28.0428L28.9989 27.2239C28.4257 27.5842 27.6887 27.7316 27.0909 27.6743L27.0417 26.9536C27.6395 26.9864 28.2537 26.9045 28.7615 26.5196C29.3756 26.0446 29.4166 25.4714 29.0235 24.9555C27.9835 23.6124 25.8952 25.6925 24.6423 24.071C24.069 23.334 24.1427 22.425 24.7733 21.7535L24.1345 20.9263L24.6341 20.5415L25.2646 21.3604C25.8379 21.0082 26.3866 21 26.9271 21.0819L26.8779 21.7698C26.3374 21.7043 25.9444 21.7289 25.5021 22.081C24.9944 22.4741 24.9125 23.0392 25.2892 23.5223C26.2146 24.7262 28.2783 22.6051 29.6541 24.3904C30.2601 25.1766 30.1864 26.1101 29.4821 26.8308L30.1291 27.6661L29.6295 28.0428Z" fill="#009EE6"/>
<path d="M34.7069 16.7989L34.3793 17.5032L33.8961 17.2985L34.3383 16.1111L34.7969 15.7589L36.7951 18.3549L37.3028 18.0028L37.614 18.404L35.9844 19.6652L35.6896 19.2803L36.1154 18.9036C36.1973 18.8299 36.2219 18.7644 36.1318 18.6415L34.7069 16.7989Z" fill="#009EE6"/>
<path d="M38.8833 14.9646C39.7432 16.0702 39.7187 16.84 39.0062 17.3886C38.2937 17.9373 37.5649 17.749 36.7214 16.6598C35.8943 15.587 35.9598 14.7599 36.6313 14.244C37.2864 13.7362 38.0235 13.8591 38.8833 14.9646ZM38.3265 15.4068C37.6713 14.5552 37.2701 14.4815 36.9671 14.719C36.6395 14.9728 36.6477 15.3905 37.3274 16.2749C37.9498 17.0856 38.351 17.1839 38.6704 16.9382C38.9734 16.7007 39.0144 16.2913 38.3265 15.4068Z" fill="#009EE6"/>
<path d="M41.3811 13.032C42.2409 14.1376 42.2164 14.9073 41.5039 15.456C40.7914 16.0129 40.0626 15.8164 39.2191 14.7272C38.392 13.6544 38.4575 12.8273 39.129 12.3114C39.7842 11.8036 40.5294 11.9265 41.3811 13.032ZM40.8324 13.4742C40.1772 12.6225 39.776 12.5488 39.473 12.7863C39.1454 13.0402 39.1536 13.4578 39.8333 14.3423C40.4557 15.153 40.8569 15.2513 41.1763 15.0056C41.4793 14.7681 41.5203 14.3587 40.8324 13.4742Z" fill="#009EE6"/>
<path d="M15.5685 31.6298C15.6422 31.3349 15.806 31.0565 16.0599 30.86C16.6659 30.3932 17.5422 30.5078 18.0089 31.1138C18.1072 31.2449 18.1727 31.3841 18.2219 31.5315C18.5822 31.5233 18.9343 31.5315 19.2865 31.5888C19.2291 31.1957 19.0817 30.819 18.8197 30.4833C18.0008 29.4269 16.4776 29.2303 15.4211 30.0492C14.8807 30.4669 14.5695 31.0729 14.4958 31.7117C14.8643 31.6707 15.2164 31.6461 15.5685 31.6298Z" fill="#009EE6"/>
<path d="M47.392 46.7963C45.0171 46.7963 43.0845 48.7289 43.0845 51.1038C43.0845 53.4787 45.0171 55.4113 47.392 55.4113C49.7669 55.4113 51.6996 53.4787 51.6996 51.1038C51.7077 48.7289 49.7669 46.7963 47.392 46.7963ZM49.0462 53.5933H46.2701V52.9382L47.0399 52.8891C47.1955 52.8809 47.2692 52.8235 47.2692 52.627V49.4905L46.3356 49.9655L45.9835 49.3513L47.433 48.4505H48.2109V52.8727L49.0381 52.9136V53.5933H49.0462Z" fill="#15CE65"/>
<path d="M47.392 45.658C44.3865 45.658 41.9461 48.0983 41.9461 51.1038C41.9461 54.1092 44.3865 56.5496 47.392 56.5496C50.3974 56.5496 52.8378 54.1092 52.8378 51.1038C52.8378 48.0983 50.3974 45.658 47.392 45.658ZM47.392 55.7553C44.8287 55.7553 42.7487 53.667 42.7487 51.112C42.7487 48.5488 44.8369 46.4687 47.392 46.4687C49.947 46.4687 52.0353 48.5569 52.0353 51.112C52.0435 53.667 49.9552 55.7553 47.392 55.7553Z" fill="#15CE65"/>
<path d="M39.817 46.2803H28.4421V48.0492H39.817V46.2803Z" fill="#15CE65"/>
<path d="M39.817 53.0118H28.4421V54.7807H39.817V53.0118Z" fill="#15CE65"/>
<path d="M37.6632 48.5651H26.2884V50.3339H37.6632V48.5651Z" fill="#15CE65"/>
<path d="M37.6632 50.7926H26.2884V52.5615H37.6632V50.7926Z" fill="#15CE65"/>
<path d="M37.6632 55.2312H26.2884V57.0001H37.6632V55.2312Z" fill="#15CE65"/>
<path d="M26.059 37.2394L21.2683 31.163H14.2337H7.19918L2.40847 37.2394C2.40847 37.2394 1.92532 49.122 14.2337 56.3039C26.534 49.122 26.059 37.2394 26.059 37.2394ZM14.4385 54.6497L14.2255 54.7889L14.0126 54.6497C3.1537 47.6561 3.84159 37.6407 3.84978 37.5342L3.85797 37.4114L7.75605 32.5633H20.6787L24.5767 37.4114L24.5849 37.5342C24.6095 37.6407 25.3056 47.6561 14.4385 54.6497Z" fill="#15CE65"/>
<path d="M20.3184 33.3577H8.14097L4.62778 37.7225C4.58683 38.8199 4.6114 47.5414 14.2256 53.8553C23.8643 47.5251 23.8643 38.8199 23.8234 37.7225L20.3184 33.3577ZM9.30384 39.2048C8.68146 39.8845 8.32113 40.9491 8.32113 40.9491C8.32113 40.9491 7.95261 39.8845 7.33023 39.2048C6.71603 38.5251 5.61868 38.132 5.61868 38.132C5.61868 38.132 6.7406 37.8126 7.42031 37.0264C7.94442 36.4286 8.31293 35.2084 8.31293 35.2166C8.31293 35.2166 8.68146 36.4368 9.20557 37.0264C9.89347 37.8044 11.0072 38.132 11.0072 38.132C11.0072 38.132 9.91803 38.5169 9.30384 39.2048Z" fill="#15CE65"/>
</g>
</svg>
