<svg width="69" height="65" viewBox="0 0 69 65" fill="none" xmlns="http://www.w3.org/2000/svg">
<circle opacity="0.2" cx="14" cy="51" r="14" fill="#009EE6"/>
<path d="M13.9804 2.28731C13.9804 1.85249 14.3329 1.5 14.7677 1.5H45.8427C46.0515 1.5 46.2518 1.58295 46.3994 1.7306L51.4225 6.75373L56.522 12.3631C56.6537 12.508 56.7267 12.6968 56.7267 12.8927V56.0392C56.7267 56.474 56.3742 56.8265 55.9394 56.8265H14.7677C14.3329 56.8265 13.9804 56.474 13.9804 56.0392V2.28731Z" stroke="#15CE65" stroke-width="3"/>
<rect x="20.486" y="37.7407" width="20.5858" height="3" rx="1.14366" fill="#15CE65"/>
<rect x="20.486" y="30.8789" width="26.3041" height="3" rx="1.14366" fill="#15CE65"/>
<rect x="20.486" y="24.0166" width="29.7351" height="3" rx="1.14366" fill="#15CE65"/>
<rect x="20.486" y="17.1548" width="29.7351" height="3" rx="1.14366" fill="#15CE65"/>
<path d="M44.6464 2.1438V11.2931C44.6464 12.5563 45.6705 13.5804 46.9337 13.5804H56.083" stroke="#15CE65" stroke-width="3"/>
<path d="M49.3086 50.5895L47.3082 38.5869L57.083 33.6995L66.8579 38.5869L64.8574 50.5895L57.083 55.9345L49.3086 50.5895Z" fill="white" stroke="#15CE65" stroke-width="3"/>
<path d="M60.0543 40.0691L56.6233 46.8489L52.968 44.5616" stroke="#15CE65" stroke-width="2.28732"/>
</svg>
