<svg width="61" height="45" viewBox="0 0 61 45" fill="none" xmlns="http://www.w3.org/2000/svg">
<g opacity="0.7">
<path d="M8.02934 9.28524L7.09195 7.73894C7.09195 7.73894 2.4771 7.43448 1.52368 9.30125C0.818636 10.6793 2.38095 11.3603 3.21419 11.4164C3.87917 11.4645 5.29728 11.4645 6.39491 11.4484C6.46701 11.3924 6.53912 11.3283 6.61123 11.2722C7.15604 10.8475 7.61272 10.1425 8.02934 9.28524Z" fill="#009EE6"/>
<path d="M45.4048 11.2802C45.4769 11.3443 45.549 11.4004 45.6211 11.4564C46.7107 11.4644 48.0727 11.4725 48.7217 11.4244C49.5549 11.3603 51.1172 10.6873 50.4122 9.30926C49.4588 7.43448 44.8439 7.74695 44.8439 7.74695L43.9546 9.22113C44.3873 10.1024 44.852 10.8315 45.4048 11.2802Z" fill="#009EE6"/>
<path d="M1.96435 35.2597C1.96435 35.8686 2.46109 36.3654 3.06999 36.3654H7.94922C8.55813 36.3654 9.05487 35.8686 9.05487 35.2597V32.0069H1.97237V35.2597H1.96435Z" fill="#009EE6"/>
<path d="M5.50559 18.1143C4.63229 18.1143 3.91924 18.8274 3.91924 19.7007C3.91924 20.574 4.63229 21.287 5.50559 21.287C6.37888 21.287 7.09195 20.574 7.09195 19.7007C7.09195 18.8274 6.37888 18.1143 5.50559 18.1143ZM5.7139 20.9025C5.59373 20.6942 5.51361 20.4538 5.51361 20.1974C5.51361 19.6045 5.88215 19.0998 6.40293 18.8915C6.60322 19.1078 6.7234 19.3962 6.7234 19.7087C6.7234 20.3016 6.29076 20.8063 5.7139 20.9025Z" fill="#009EE6"/>
<path d="M9.24715 18.571C8.49403 18.571 7.88512 19.1799 7.88512 19.933C7.88512 20.6861 8.49403 21.295 9.24715 21.295C10.0003 21.295 10.6092 20.6861 10.6092 19.933C10.6092 19.1799 9.99225 18.571 9.24715 18.571ZM9.4234 20.9585C9.31924 20.7823 9.25515 20.574 9.25515 20.3496C9.25515 19.8369 9.57563 19.4042 10.0163 19.228C10.1845 19.4122 10.2887 19.6606 10.2887 19.925C10.2887 20.4458 9.91212 20.8704 9.4234 20.9585Z" fill="#009EE6"/>
<path d="M46.4543 18.1143C47.3276 18.1143 48.0407 18.8274 48.0407 19.7007C48.0407 20.574 47.3276 21.287 46.4543 21.287C45.581 21.287 44.868 20.574 44.868 19.7007C44.868 18.8274 45.581 18.1143 46.4543 18.1143ZM46.254 20.9025C46.3742 20.6942 46.4543 20.4538 46.4543 20.1974C46.4543 19.6045 46.0858 19.0998 45.565 18.8915C45.3647 19.1078 45.2445 19.3962 45.2445 19.7087C45.2365 20.3016 45.6772 20.8063 46.254 20.9025Z" fill="#009EE6"/>
<path d="M42.7208 18.571C43.4739 18.571 44.0828 19.1799 44.0828 19.933C44.0828 20.6861 43.4739 21.295 42.7208 21.295C41.9677 21.295 41.3588 20.6861 41.3588 19.933C41.3588 19.1799 41.9677 18.571 42.7208 18.571ZM42.5445 20.9585C42.6487 20.7823 42.7128 20.574 42.7128 20.3496C42.7128 19.8369 42.3923 19.4042 41.9517 19.228C41.7834 19.4122 41.6792 19.6606 41.6792 19.925C41.6712 20.4458 42.0478 20.8704 42.5445 20.9585Z" fill="#009EE6"/>
<path d="M51.0451 21.4312C51.0131 20.8143 50.973 20.2054 50.9169 19.6205C50.6205 16.6 48.7617 14.9736 44.9241 11.8811C43.6662 10.8716 42.873 8.77245 42.0398 6.54515C41.6792 5.58372 41.3027 4.58223 40.8861 3.6849C39.9647 1.69795 38.6267 0.680441 36.784 0.576287C35.1496 0.480144 31.0234 0.408036 26.016 0.400024C21.0086 0.408036 16.8825 0.480144 15.248 0.576287C13.4053 0.688453 12.0673 1.70597 11.146 3.6849C10.7294 4.58223 10.3528 5.5757 9.99226 6.53713C9.15101 8.75642 8.36584 10.8555 7.10797 11.873C3.27028 14.9656 1.41153 16.592 1.11509 19.6125C0.68245 24.0351 1.00293 29.7636 1.09106 31.2378H39.8365C39.4039 29.7075 39.0353 27.8327 39.8846 26.5107C40.9181 24.8923 41.9917 23.4182 43.3537 22.0882C41.7754 22.1042 40.173 22.1042 38.8991 22.0481C36.4395 21.928 38.5947 19.5885 40.2531 18.2265C41.9116 16.8724 45.2285 17.0087 47.3036 17.1208C48.3531 17.1769 48.7297 17.6897 49.1463 19.6686C49.3626 20.6941 49.2024 21.271 48.8899 21.6075C49.603 21.5434 50.3241 21.4793 51.0451 21.4312ZM12.508 28.6419C12.508 29.2989 12.0273 29.5953 11.4664 29.5953C9.62371 29.5953 5.7059 29.6033 4.34388 29.5953C3.67088 29.5953 3.27029 29.2829 3.26228 28.674C3.25427 27.5122 2.70145 24.5558 5.47356 24.5879C7.40442 24.6119 9.26318 24.5879 11.1219 24.5879C11.9231 24.5879 12.548 25.1407 12.548 25.9659C12.5561 26.7831 12.508 27.5202 12.508 28.6419ZM13.0448 22.0481C10.5851 22.1683 6.88365 22.0561 4.51213 22.0561C3.82311 22.0561 2.30085 22.0481 2.8056 19.6766C3.22222 17.6977 3.59878 17.1849 4.64833 17.1288C6.72341 17.0087 10.0403 16.8725 11.6988 18.2345C13.3572 19.5885 15.5044 21.936 13.0448 22.0481ZM31.6644 28.9143H20.3676V26.2303H31.6644V28.9143ZM35.0374 22.633C33.8757 23.7226 29.8777 23.8829 26.1202 23.8909C26.1041 23.8909 26.0961 23.8909 26.0801 23.8909C26.0641 23.8909 26.0561 23.8909 26.0401 23.8909C22.2825 23.8829 18.2845 23.7226 17.1228 22.633C14.9356 20.5819 16.2896 18.9956 17.3712 19.0036C18.9896 19.0276 22.667 19.0196 26.0401 19.0116C26.0561 19.0116 26.0641 19.0116 26.0801 19.0116C26.0961 19.0116 26.1041 19.0116 26.1202 19.0116C29.4932 19.0196 33.1706 19.0276 34.789 19.0036C35.8706 18.9956 37.2246 20.5819 35.0374 22.633ZM24.6139 16.4398C24.6139 16.0953 25.2549 15.8229 26.0401 15.8229C26.8252 15.8229 27.4662 16.1033 27.4662 16.4398C27.4662 16.7843 26.8252 17.0567 26.0401 17.0567C25.2549 17.0567 24.6139 16.7843 24.6139 16.4398ZM10.3047 10.8395C10.6412 9.7579 10.9056 7.61873 11.9632 4.97481C12.484 3.67689 13.189 2.12258 15.4724 1.75403C16.0813 1.65789 21.0086 1.58579 26.016 1.56976C31.0234 1.57778 35.9508 1.65789 36.5597 1.75403C38.843 2.12258 39.5481 3.67689 40.0689 4.97481C41.1264 7.61873 41.3908 9.7579 41.7273 10.8395H10.3047Z" fill="#009EE6"/>
<path d="M60.8917 26.8713L56.3971 21.1748H49.8033H43.2095L38.7148 26.8713C38.7148 26.8713 38.2662 38.0078 49.8033 44.7458C61.3404 38.0078 60.8917 26.8713 60.8917 26.8713ZM50.0116 43.2155L49.8033 43.3517L49.595 43.2155C39.3958 36.6538 40.0688 27.0315 40.0688 27.0315L43.7383 22.4727H55.8763L59.5457 27.0315L59.5537 27.1517C59.5537 27.2398 60.2027 36.6458 50.0116 43.2155Z" fill="#15CE65"/>
<path d="M55.5077 23.2419H44.1068L40.822 27.32C40.7899 28.3695 40.814 36.5176 49.8033 42.4304C58.8086 36.5096 58.8247 28.3695 58.7846 27.32L55.5077 23.2419ZM45.1804 28.7061C44.6036 29.347 44.2591 30.3405 44.2591 30.3405C44.2591 30.3405 43.9065 29.347 43.3297 28.7061C42.7528 28.0651 41.7273 27.7046 41.7273 27.7046C41.7273 27.7046 42.7769 27.4001 43.4178 26.671C43.9065 26.1102 44.2591 24.9645 44.2591 24.9725C44.2591 24.9725 44.6036 26.1102 45.1003 26.671C45.7413 27.4001 46.7908 27.7046 46.7908 27.7046C46.7908 27.7046 45.7653 28.0651 45.1804 28.7061Z" fill="#15CE65"/>
</g>
</svg>
