<svg width="89" height="89" viewBox="0 0 89 89" fill="none" xmlns="http://www.w3.org/2000/svg">
<g clip-path="url(#clip0)">
<path opacity="0.7" d="M68.8722 64.4396C69.073 63.9129 68.8082 63.3233 68.2824 63.1224L61.822 60.658C61.3974 60.4961 61.0362 60.2134 60.7774 59.8397L57.7319 55.4479C57.4688 55.0687 57.1482 54.7362 56.7788 54.4595L53.1644 51.7531C53.3256 51.0846 53.4602 50.4043 53.563 49.7178C53.6132 49.383 53.6528 49.0515 53.6873 48.7219L62.4584 50.7249C63.2037 50.8953 63.9827 50.8627 64.7114 50.631L71.7894 48.3809C72.6457 48.1088 73.3831 47.5846 73.9219 46.8651L74.5996 45.9601C74.9375 45.5089 74.8456 44.8694 74.3944 44.5315C73.9431 44.1936 73.3037 44.2855 72.9658 44.7367L72.2882 45.6417C72.006 46.0186 71.6197 46.2931 71.1712 46.4357L64.093 48.6859C63.7114 48.8074 63.3035 48.8242 62.913 48.735L53.8031 46.6547C53.8096 45.4116 53.6988 44.2276 53.471 43.1316L65.4188 43.5142C66.1778 43.5386 66.9192 43.4053 67.6226 43.1181L71.5237 41.5253C72.4256 41.1572 73.2107 40.5505 73.7944 39.7709L75.0289 38.1224C75.3668 37.6711 75.2749 37.0317 74.8237 36.6938C74.3724 36.3559 73.733 36.4478 73.3951 36.899L72.1606 38.5477C71.7986 39.0312 71.3116 39.4075 70.7522 39.6358L66.8508 41.2286C66.4146 41.4068 65.9548 41.4894 65.4841 41.4743L53.1303 41.0788C53.043 41.0759 52.9585 41.0854 52.877 41.1034C52.822 40.9619 52.7636 40.8237 52.7038 40.6868C54.4921 39.4643 56.3398 36.0889 56.7147 33.307C56.7575 32.9899 56.649 32.6712 56.4218 32.446C56.1937 32.2205 55.8748 32.1151 55.5581 32.1605L53.5208 32.4533L53.2282 30.4159C53.1826 30.0992 52.9913 29.8222 52.7112 29.6675C52.4311 29.5128 52.0947 29.4986 51.8025 29.6288C49.2386 30.7716 46.5197 33.4948 45.8501 35.5547C45.7019 35.5359 45.5528 35.5188 45.4016 35.5058C45.3959 35.4226 45.3812 35.3388 45.3539 35.2558L41.4971 23.5129C41.35 23.0655 41.2999 22.6009 41.3482 22.1322L41.7784 17.94C41.8401 17.3391 42.064 16.766 42.4261 16.2825L43.6606 14.6338C43.9985 14.1826 43.9066 13.5432 43.4554 13.2053C43.0042 12.8674 42.3647 12.9592 42.0268 13.4105L40.7923 15.0592C40.2086 15.8387 39.8473 16.763 39.748 17.7317L39.3177 21.9236C39.2401 22.6794 39.3208 23.4283 39.5579 24.1498L43.2881 35.5068C42.1723 35.5967 41.005 35.8237 39.8139 36.1798L35.2535 28.0236C35.0581 27.6743 34.9595 27.278 34.9685 26.8776L35.1354 19.4522C35.1458 18.9818 35.3007 18.5339 35.5829 18.157L36.2605 17.252C36.5984 16.8008 36.5066 16.1614 36.0553 15.8235C35.6041 15.4856 34.9647 15.5774 34.6268 16.0287L33.9491 16.9337C33.4104 17.6531 33.115 18.5082 33.0949 19.4065L32.9279 26.8317C32.9109 27.5962 33.0989 28.3528 33.472 29.0199L37.8629 36.8728C37.5563 36.9987 37.2495 37.13 36.9422 37.2724C36.3125 37.5642 35.6977 37.8848 35.1015 38.2278L31.4871 35.5213C31.1177 35.2447 30.7083 35.0306 30.2704 34.8849L25.199 33.1989C24.7679 33.0555 24.3945 32.7884 24.1198 32.4266L19.9366 26.9209C19.5954 26.4725 18.9553 26.3846 18.5066 26.7257C18.0579 27.0668 17.9705 27.707 18.3114 28.1557L22.4948 33.661C22.7382 33.9815 23.022 34.263 23.3386 34.5001C23.7042 34.7739 24.1138 34.9885 24.5551 35.1353L29.6266 36.8214C29.856 36.8976 30.0704 37.0097 30.2639 37.1547L33.2655 39.4023C31.868 40.3922 30.6383 41.5035 29.6685 42.665L27.7494 42.0269C27.1042 41.8123 26.4205 41.8078 25.7718 42.0139L17.694 44.5821C17.6339 44.6011 17.5715 44.6154 17.5085 44.6245L8.54419 45.9121C7.98621 45.9924 7.59898 46.5095 7.67911 47.0674C7.71928 47.3464 7.8687 47.5827 8.07771 47.7392C8.28672 47.8957 8.55554 47.9725 8.8345 47.9326L17.7988 46.6449C17.9729 46.6198 18.146 46.5803 18.313 46.5271L26.3903 43.9591C26.6249 43.8846 26.8724 43.8862 27.1056 43.9638L28.4313 44.4045C25.0846 50.0357 26.4589 57.4235 31.8183 61.4366C37.1776 65.4497 44.6535 64.6889 49.1151 59.8924L49.9111 61.0405C50.0513 61.2425 50.1225 61.4796 50.117 61.7255L49.9264 70.1991C49.9223 70.3745 49.9331 70.5517 49.958 70.7259L51.2457 79.6902C51.2858 79.9691 51.4353 80.2054 51.6443 80.3619C51.8533 80.5184 52.1221 80.5953 52.4011 80.5553C52.959 80.4751 53.3463 79.958 53.2661 79.4001L51.9785 70.4358C51.9694 70.3727 51.9655 70.3088 51.967 70.2455L52.1576 61.7715C52.1727 61.0914 51.976 60.4365 51.5885 59.8778L50.436 58.2158C51.2776 56.9583 51.9978 55.4656 52.5543 53.8459L55.5559 56.0935C55.7494 56.2383 55.9174 56.4126 56.0551 56.6112L59.1006 61.0031C59.3656 61.3853 59.6868 61.7177 60.0525 61.9916C60.3691 62.2287 60.719 62.4218 61.0951 62.5652L67.5554 65.0297C68.0815 65.2302 68.6713 64.9662 68.8722 64.4396ZM51.4182 32.1708L51.6455 33.7536C51.7258 34.3114 52.243 34.6987 52.8008 34.6186L54.3835 34.3912C53.7555 36.4174 52.4377 38.4649 51.4761 39.0512C51.4506 39.0667 51.4264 39.0838 51.4028 39.1012C50.9118 38.8818 50.3347 38.8501 49.779 39.0503C49.4131 39.1823 49.0099 39.1226 48.7003 38.8908C48.3908 38.659 48.2201 38.2888 48.2438 37.9006C48.2795 37.3112 48.0866 36.7661 47.7379 36.3567C47.7478 36.3291 47.7573 36.3012 47.7651 36.2724C48.0569 35.1847 49.6508 33.3437 51.4182 32.1708ZM33.0412 59.8029C28.2066 56.1827 27.2186 49.3043 30.8387 44.4697C33.8736 40.4167 41.0735 36.6476 46.1663 37.6698C46.1689 37.6703 46.1716 37.6716 46.1743 37.6736C46.1911 37.6862 46.2094 37.7261 46.2064 37.7765C46.1408 38.8524 46.6159 39.8798 47.4769 40.5245C48.3379 41.1692 49.4574 41.3358 50.4713 40.9702C50.5266 40.9503 50.5762 40.9627 50.5851 40.9785C52.9995 45.5777 51.4093 53.5474 48.3744 57.6003C44.7542 62.435 37.8758 63.423 33.0412 59.8029Z" fill="#009EE6"/>
<circle opacity="0.7" cx="40.5" cy="49.5" r="8.5" fill="#15CE65"/>
</g>
<defs>
<clipPath id="clip0">
<rect x="38.1661" y="0.404907" width="63" height="63" transform="rotate(36.8258 38.1661 0.404907)" fill="white"/>
</clipPath>
</defs>
</svg>
