<svg width="194" height="43" viewBox="0 0 194 43" fill="none" xmlns="http://www.w3.org/2000/svg">
<path d="M58.3757 27.4172C57.5528 27.4172 56.7489 27.3096 55.9639 27.0944C55.179 26.8792 54.5524 26.607 54.0839 26.2778L54.9955 24.4738C55.4512 24.7776 55.9956 25.0245 56.6286 25.2144C57.2743 25.3916 57.9073 25.4802 58.5276 25.4802C59.9455 25.4802 60.6545 25.1068 60.6545 24.3598C60.6545 24.0053 60.4709 23.7585 60.1038 23.6192C59.7493 23.4799 59.1733 23.347 58.3757 23.2204C57.5401 23.0938 56.8565 22.9482 56.3248 22.7836C55.8057 22.6191 55.3499 22.3342 54.9575 21.9291C54.5777 21.5113 54.3878 20.9353 54.3878 20.201C54.3878 19.2389 54.7866 18.4729 55.5841 17.9032C56.3944 17.3209 57.4831 17.0297 58.8504 17.0297C59.5467 17.0297 60.243 17.112 60.9393 17.2766C61.6356 17.4285 62.2053 17.6374 62.6484 17.9032L61.7369 19.7073C60.876 19.2009 59.9075 18.9477 58.8314 18.9477C58.1351 18.9477 57.6034 19.0553 57.2363 19.2705C56.8818 19.4731 56.7046 19.7453 56.7046 20.0871C56.7046 20.4669 56.8945 20.7391 57.2743 20.9036C57.6667 21.0556 58.2681 21.2011 59.0783 21.3404C59.8885 21.467 60.5532 21.6126 61.0723 21.7772C61.5913 21.9418 62.0344 22.2203 62.4015 22.6127C62.7813 23.0052 62.9712 23.5622 62.9712 24.2839C62.9712 25.2334 62.5598 25.993 61.7369 26.5627C60.914 27.1324 59.7936 27.4172 58.3757 27.4172ZM71.1113 26.7336C70.8328 26.9614 70.4909 27.1324 70.0858 27.2463C69.6934 27.3602 69.2756 27.4172 68.8325 27.4172C67.7184 27.4172 66.8575 27.126 66.2498 26.5437C65.6422 25.9613 65.3383 25.1131 65.3383 23.999V19.1186H63.6672V17.2196H65.3383V14.9028H67.7121V17.2196H70.4276V19.1186H67.7121V23.942C67.7121 24.4358 67.8323 24.8156 68.0729 25.0814C68.3134 25.3346 68.6616 25.4612 69.1173 25.4612C69.649 25.4612 70.0921 25.322 70.4466 25.0435L71.1113 26.7336ZM75.3238 18.6248C76.0074 17.5614 77.2101 17.0297 78.9319 17.0297V19.2895C78.7293 19.2515 78.5457 19.2325 78.3812 19.2325C77.457 19.2325 76.7354 19.5047 76.2163 20.0491C75.6973 20.5808 75.4377 21.3531 75.4377 22.3659V27.2843H73.064V17.1436H75.3238V18.6248ZM84.7639 17.0297C86.2578 17.0297 87.3972 17.3905 88.1821 18.1121C88.9797 18.8211 89.3784 19.8972 89.3784 21.3404V27.2843H87.1376V26.0499C86.8464 26.493 86.4287 26.8348 85.8843 27.0754C85.3526 27.3033 84.7069 27.4172 83.9473 27.4172C83.1877 27.4172 82.5231 27.2906 81.9534 27.0374C81.3837 26.7715 80.9406 26.4107 80.6241 25.955C80.3202 25.4866 80.1683 24.9612 80.1683 24.3788C80.1683 23.4673 80.5038 22.7393 81.1748 22.195C81.8584 21.6379 82.9282 21.3594 84.3841 21.3594H87.0047V21.2075C87.0047 20.4985 86.7895 19.9541 86.359 19.5743C85.9413 19.1945 85.3146 19.0046 84.479 19.0046C83.9093 19.0046 83.346 19.0933 82.7889 19.2705C82.2445 19.4477 81.7825 19.6946 81.4027 20.0111L80.4721 18.283C81.0039 17.8779 81.6432 17.5677 82.3901 17.3525C83.1371 17.1373 83.9283 17.0297 84.7639 17.0297ZM84.441 25.6891C85.0361 25.6891 85.5615 25.5562 86.0172 25.2903C86.4856 25.0118 86.8148 24.6193 87.0047 24.1129V22.9356H84.555C83.1877 22.9356 82.5041 23.385 82.5041 24.2839C82.5041 24.7143 82.675 25.0561 83.0168 25.3093C83.3586 25.5625 83.8334 25.6891 84.441 25.6891ZM98.1788 17.0297C99.4575 17.0297 100.483 17.4032 101.255 18.1501C102.027 18.897 102.414 20.0048 102.414 21.4733V27.2843H100.04V21.7772C100.04 20.891 99.8309 20.2263 99.4132 19.7832C98.9954 19.3275 98.4004 19.0996 97.6281 19.0996C96.7546 19.0996 96.0646 19.3655 95.5582 19.8972C95.0518 20.4162 94.7986 21.1695 94.7986 22.157V27.2843H92.4248V13.1937H94.7986V18.321C95.1911 17.9032 95.6721 17.5867 96.2418 17.3715C96.8242 17.1436 97.4698 17.0297 98.1788 17.0297ZM110.075 27.4172C109.05 27.4172 108.126 27.1957 107.303 26.7526C106.48 26.3095 105.834 25.6954 105.366 24.9105C104.91 24.1129 104.682 23.2141 104.682 22.2139C104.682 21.2138 104.91 20.3213 105.366 19.5364C105.834 18.7514 106.48 18.1374 107.303 17.6943C108.126 17.2512 109.05 17.0297 110.075 17.0297C111.113 17.0297 112.044 17.2512 112.867 17.6943C113.69 18.1374 114.329 18.7514 114.785 19.5364C115.253 20.3213 115.487 21.2138 115.487 22.2139C115.487 23.2141 115.253 24.1129 114.785 24.9105C114.329 25.6954 113.69 26.3095 112.867 26.7526C112.044 27.1957 111.113 27.4172 110.075 27.4172ZM110.075 25.3853C110.949 25.3853 111.67 25.0941 112.24 24.5117C112.81 23.9294 113.095 23.1634 113.095 22.2139C113.095 21.2644 112.81 20.4985 112.24 19.9162C111.67 19.3338 110.949 19.0426 110.075 19.0426C109.202 19.0426 108.48 19.3338 107.91 19.9162C107.353 20.4985 107.075 21.2644 107.075 22.2139C107.075 23.1634 107.353 23.9294 107.91 24.5117C108.48 25.0941 109.202 25.3853 110.075 25.3853ZM126.974 17.1436L122.625 27.2843H120.176L115.827 17.1436H118.296L121.448 24.6637L124.695 17.1436H126.974ZM132.016 17.0297C133.51 17.0297 134.65 17.3905 135.434 18.1121C136.232 18.8211 136.631 19.8972 136.631 21.3404V27.2843H134.39V26.0499C134.099 26.493 133.681 26.8348 133.137 27.0754C132.605 27.3033 131.959 27.4172 131.2 27.4172C130.44 27.4172 129.775 27.2906 129.206 27.0374C128.636 26.7715 128.193 26.4107 127.876 25.955C127.573 25.4866 127.421 24.9612 127.421 24.3788C127.421 23.4673 127.756 22.7393 128.427 22.195C129.111 21.6379 130.181 21.3594 131.636 21.3594H134.257V21.2075C134.257 20.4985 134.042 19.9541 133.611 19.5743C133.194 19.1945 132.567 19.0046 131.731 19.0046C131.162 19.0046 130.598 19.0933 130.041 19.2705C129.497 19.4477 129.035 19.6946 128.655 20.0111L127.725 18.283C128.256 17.8779 128.896 17.5677 129.643 17.3525C130.389 17.1373 131.181 17.0297 132.016 17.0297ZM131.693 25.6891C132.288 25.6891 132.814 25.5562 133.27 25.2903C133.738 25.0118 134.067 24.6193 134.257 24.1129V22.9356H131.807C130.44 22.9356 129.756 23.385 129.756 24.2839C129.756 24.7143 129.927 25.0561 130.269 25.3093C130.611 25.5625 131.086 25.6891 131.693 25.6891ZM145.431 17.0297C146.71 17.0297 147.735 17.4032 148.508 18.1501C149.28 18.897 149.666 20.0048 149.666 21.4733V27.2843H147.292V21.7772C147.292 20.891 147.083 20.2263 146.666 19.7832C146.248 19.3275 145.653 19.0996 144.881 19.0996C144.007 19.0996 143.317 19.3655 142.811 19.8972C142.304 20.4162 142.051 21.1695 142.051 22.157V27.2843H139.677V17.1436H141.937V18.4539C142.33 17.9855 142.823 17.631 143.418 17.3905C144.013 17.15 144.684 17.0297 145.431 17.0297ZM152.677 17.1436H155.051V27.2843H152.677V17.1436ZM153.874 15.4725C153.443 15.4725 153.082 15.3396 152.791 15.0737C152.5 14.7952 152.354 14.4534 152.354 14.0483C152.354 13.6431 152.5 13.3076 152.791 13.0418C153.082 12.7633 153.443 12.624 153.874 12.624C154.304 12.624 154.665 12.7569 154.956 13.0228C155.247 13.276 155.393 13.5988 155.393 13.9913C155.393 14.4091 155.247 14.7635 154.956 15.0547C154.677 15.3332 154.317 15.4725 153.874 15.4725ZM167.699 22.2709C167.699 22.4355 167.687 22.6697 167.661 22.9735H159.705C159.844 23.7205 160.205 24.3155 160.787 24.7586C161.382 25.189 162.116 25.4043 162.99 25.4043C164.104 25.4043 165.022 25.0371 165.744 24.3028L167.016 25.7651C166.56 26.3095 165.984 26.7209 165.288 26.9994C164.591 27.2779 163.807 27.4172 162.933 27.4172C161.819 27.4172 160.838 27.1957 159.99 26.7526C159.141 26.3095 158.483 25.6954 158.015 24.9105C157.559 24.1129 157.331 23.2141 157.331 22.2139C157.331 21.2265 157.552 20.3403 157.996 19.5554C158.451 18.7578 159.078 18.1374 159.876 17.6943C160.673 17.2512 161.572 17.0297 162.572 17.0297C163.56 17.0297 164.44 17.2512 165.212 17.6943C165.997 18.1248 166.604 18.7388 167.035 19.5364C167.478 20.3213 167.699 21.2328 167.699 22.2709ZM162.572 18.9287C161.813 18.9287 161.167 19.1566 160.635 19.6123C160.116 20.0554 159.8 20.6504 159.686 21.3974H165.44C165.338 20.6631 165.028 20.0681 164.509 19.6123C163.99 19.1566 163.344 18.9287 162.572 18.9287ZM170.739 27.4172C170.309 27.4172 169.942 27.2716 169.638 26.9804C169.334 26.6766 169.182 26.2968 169.182 25.841C169.182 25.3726 169.328 24.9928 169.619 24.7016C169.923 24.4105 170.296 24.2649 170.739 24.2649C171.182 24.2649 171.549 24.4105 171.841 24.7016C172.144 24.9928 172.296 25.3726 172.296 25.841C172.296 26.2968 172.144 26.6766 171.841 26.9804C171.537 27.2716 171.17 27.4172 170.739 27.4172ZM176.876 18.6248C177.559 17.5614 178.762 17.0297 180.484 17.0297V19.2895C180.281 19.2515 180.098 19.2325 179.933 19.2325C179.009 19.2325 178.287 19.5047 177.768 20.0491C177.249 20.5808 176.99 21.3531 176.99 22.3659V27.2843H174.616V17.1436H176.876V18.6248ZM192.408 17.1436V27.2843H190.148V25.993C189.768 26.4487 189.294 26.8032 188.724 27.0564C188.154 27.2969 187.54 27.4172 186.882 27.4172C185.527 27.4172 184.457 27.0437 183.673 26.2968C182.9 25.5372 182.514 24.4168 182.514 22.9356V17.1436H184.888V22.6127C184.888 23.5243 185.09 24.2079 185.496 24.6637C185.913 25.1068 186.502 25.3283 187.262 25.3283C188.11 25.3283 188.781 25.0688 189.275 24.5497C189.781 24.018 190.034 23.2584 190.034 22.2709V17.1436H192.408Z" fill="#15CE65"/>
<path fill-rule="evenodd" clip-rule="evenodd" d="M13.5914 37.1547C8.12994 35.9972 3.47567 33.6916 0.314514 30.6804C0.859699 33.5087 2.22736 36.2099 4.41749 38.4C8.41566 42.3982 14.1169 43.6554 19.1861 42.1716C18.161 41.5246 17.1913 40.7546 16.2981 39.8614L13.5914 37.1547ZM28.8214 5.45227C34.3694 6.49345 39.1432 8.70793 42.4543 11.6517C41.8562 8.98458 40.5193 6.44977 38.4435 4.37401C34.3804 0.310955 28.5587 -0.921443 23.4287 0.676807C24.4928 1.33722 25.4985 2.12933 26.4223 3.05315L28.8214 5.45227Z" fill="#009EE6"/>
<path fill-rule="evenodd" clip-rule="evenodd" d="M25.537 4.37401C19.705 -1.458 10.2494 -1.458 4.41743 4.37401C2.22729 6.56415 0.859633 9.26531 0.314453 12.0937C4.93855 7.68886 12.7575 4.79391 21.6246 4.79391C23.1936 4.79391 24.7297 4.88455 26.2212 5.05815L25.537 4.37401ZM42.4543 31.1224C37.7801 35.2778 30.1915 37.9801 21.6246 37.9801C19.9 37.9801 18.2151 37.8706 16.5856 37.6618L17.3238 38.4C23.1559 44.232 32.6114 44.232 38.4434 38.4C40.5192 36.3243 41.8561 33.7895 42.4543 31.1224Z" fill="#15CE65"/>
<path d="M9.77714 15.816C10.8059 15.816 11.6964 15.9874 12.4486 16.3304C13.2119 16.6733 13.7982 17.16 14.2075 17.7906C14.6168 18.4211 14.8214 19.1678 14.8214 20.0306C14.8214 20.8824 14.6168 21.6291 14.2075 22.2707C13.7982 22.9012 13.2119 23.388 12.4486 23.7309C11.6964 24.0627 10.8059 24.2287 9.77714 24.2287H7.43751V27.4312H4.74942V15.816H9.77714ZM9.6278 22.0384C10.4353 22.0384 11.0493 21.8669 11.4696 21.524C11.89 21.17 12.1002 20.6722 12.1002 20.0306C12.1002 19.378 11.89 18.8802 11.4696 18.5372C11.0493 18.1833 10.4353 18.0063 9.6278 18.0063H7.43751V22.0384H9.6278ZM24.1411 27.4312L21.901 24.1955H21.7683H19.4286V27.4312H16.7405V15.816H21.7683C22.797 15.816 23.6875 15.9874 24.4397 16.3304C25.203 16.6733 25.7893 17.16 26.1986 17.7906C26.6079 18.4211 26.8126 19.1678 26.8126 20.0306C26.8126 20.8935 26.6024 21.6402 26.182 22.2707C25.7727 22.8902 25.1864 23.3658 24.4232 23.6977L27.0283 27.4312H24.1411ZM24.0913 20.0306C24.0913 19.378 23.8811 18.8802 23.4608 18.5372C23.0404 18.1833 22.4264 18.0063 21.6189 18.0063H19.4286V22.055H21.6189C22.4264 22.055 23.0404 21.878 23.4608 21.524C23.8811 21.17 24.0913 20.6722 24.0913 20.0306ZM34.5674 27.6303C33.3616 27.6303 32.272 27.3703 31.2985 26.8504C30.3361 26.3305 29.5784 25.617 29.0253 24.7099C28.4832 23.7917 28.2122 22.763 28.2122 21.6236C28.2122 20.4842 28.4832 19.4609 29.0253 18.5538C29.5784 17.6357 30.3361 16.9166 31.2985 16.3967C32.272 15.8768 33.3616 15.6169 34.5674 15.6169C35.7731 15.6169 36.8572 15.8768 37.8196 16.3967C38.782 16.9166 39.5398 17.6357 40.0929 18.5538C40.646 19.4609 40.9225 20.4842 40.9225 21.6236C40.9225 22.763 40.646 23.7917 40.0929 24.7099C39.5398 25.617 38.782 26.3305 37.8196 26.8504C36.8572 27.3703 35.7731 27.6303 34.5674 27.6303ZM34.5674 25.3404C35.2532 25.3404 35.8727 25.1856 36.4258 24.8758C36.9789 24.555 37.4103 24.1125 37.7201 23.5484C38.0409 22.9842 38.2013 22.3426 38.2013 21.6236C38.2013 20.9045 38.0409 20.2629 37.7201 19.6988C37.4103 19.1346 36.9789 18.6976 36.4258 18.3879C35.8727 18.0671 35.2532 17.9067 34.5674 17.9067C33.8815 17.9067 33.2621 18.0671 32.709 18.3879C32.1558 18.6976 31.7189 19.1346 31.3981 19.6988C31.0884 20.2629 30.9335 20.9045 30.9335 21.6236C30.9335 22.3426 31.0884 22.9842 31.3981 23.5484C31.7189 24.1125 32.1558 24.555 32.709 24.8758C33.2621 25.1856 33.8815 25.3404 34.5674 25.3404Z" fill="#15CE65"/>
</svg>
